<svg id="Layer_1" data-name="Layer 1" xmlns="http://www.w3.org/2000/svg" viewBox="0 0 307 154"><defs><style>.cls-1{fill:#006298;}.cls-2{fill:#ff636a;}.cls-3{fill:maroon;}.cls-4{fill:#004f80;}.cls-5{fill:#ff7e60;}.cls-6{fill:#f37033;}.cls-7{fill:#df3603;}.cls-8{fill:#94d2e7;}.cls-9{fill:#fa0;}.cls-10{fill:#decadc;}.cls-11{fill:#c09ebb;}.cls-12{fill:#243142;}.cls-13{fill:#ffa690;}.cls-14{fill:#ffd563;}.cls-15{fill:#a7d094;}.cls-16{fill:#008b4c;}.cls-17{fill:#00385f;}.cls-18{fill:#328bb8;}.cls-19{fill:#329446;}.cls-20{fill:#f23a3f;}.cls-21{fill:#7d4c73;}.cls-22{fill:#a07498;}</style></defs><path class="cls-1" d="M117.68,82V60.88L99.82,35.75h10.85l11.4,16.34,11.05-16.34h11L126.19,61V82Zm7.48-1V60.54l16.89-23.76h-8.44l-11.54,17.1-11.95-17.1h-8.23l16.82,23.76V81ZM109.92,38l.2.34-.2.35h-3.3l-2.26.27-.35-.62.35-.34Zm-2,1.85h3.29l.21.35-.21.34h-3.29l-2.27.27-.34-.61.34-.62Zm1.3,1.86h3.3l.2.34-.2.34h-3.3l-2.26.28-.35-.62.35-.62Zm1.37,1.92h3.3l.21.34-.21.35h-3.3l-2.26.27-.34-.62.34-.62Zm1.31,1.85h3.29l.21.35-.21.34h-3.29l-2.27.27-.34-.61.34-.62Zm1.3,1.86h3.3l.21.34-.21.34h-3.3l-2.26.28-.35-.62L111,47ZM111.7,35.68l5.63,2.75L124,47.9l-1.85,2.68Zm2.89,13.53h3.22l.21.34-.21.35h-3.22l-2.27.27-.34-.62.34-.62ZM116,51.06h3.16l.2.35-.2.34H116l-2.27.34-.34-.68.34-.62Zm1.24,1.86h3.22l.21.34-.21.34H117.2l-2.27.28-.34-.62.34-.62Zm1.37,1.92h9.13l.21.34-.21.35h-9.13l-2.27.27-.34-.62.34-.55Zm1.3,1.85h6.53l.2.35-.2.34h-6.53l-2.26.27-.35-.61.35-.62Zm1.24,29-3.43-2.75h9.4V61.29l18.27-25.54,2.06,2.2L130.52,61.77v23.9Zm.07-27.12h3.91l.21.34-.21.34h-3.91l-2.27.28-.34-.62.34-.62Zm1,1.92h1.85l.21.34-.21.35h-1.85l-2.27.27-.34-.62.34-.62Zm0,1.85h1.85l.21.35-.21.34h-1.85l-2.27.27-.34-.61.34-.62Zm0,1.86h1.85l.21.34-.21.34h-1.85l-2.27.28-.34-.62.34-.62Zm0,1.92h1.85l.21.34-.21.35h-1.85l-2.27.27-.34-.62.34-.62Zm0,1.85h1.85l.21.35-.21.34h-1.85l-2.27.27-.34-.61.34-.62Zm0,1.86h1.85l.21.34-.21.34h-1.85l-2.27.28-.34-.62.34-.62Zm0,1.92h1.85l.21.34-.21.35h-1.85l-2.27.27-.34-.62.34-.62Zm0,1.85h1.85l.21.35-.21.34h-1.85l-2.27.34-.34-.68.34-.62Zm0,1.86h1.85l.21.34-.21.34h-1.85l-2.27.28-.34-.62.34-.62Zm0,1.85h1.85l.21.34-.21.35h-1.85l-2.27.27-.34-.62.34-.61Zm0,1.86h1.85l.21.34-.21.34h-4.12l-.34-.34.34-.62Zm1.51-25.55-.21-.34.21-.34h5.35l.21.34-.21.34ZM125,51.75l-.2-.34.2-.35h5.43l.2.35-.2.34Zm1.31-1.85-.21-.35.21-.34h5.42l.21.34-.21.35ZM127.5,48l-.21-.34.21-.34h5.56l.2.34-.2.34Zm1.3-1.85-.21-.34.21-.35h5.56l.21.35-.21.34ZM130,44.27l-.21-.35.21-.34h5.62l.21.34-.21.35Zm1.23-1.93-.21-.34.21-.34H137l.2.34-.2.34Zm1.31-1.85-.21-.34.21-.35h5.76l.21.35-.21.34Zm1.23-1.85-.2-.35.2-.34h5.84l.2.34-.2.35Z"/><path class="cls-1" d="M143.5,58.82c0-12.7,8.85-24,22.38-24s22.31,11.4,22.31,24.1-8.85,24-22.31,24S143.5,71.52,143.5,58.82Zm43.66.14c0-12.63-8.44-23.07-21.28-23.07s-21.35,10.23-21.35,22.93,8.58,23.07,21.35,23.07S187.16,71.59,187.16,59ZM148.1,57.65h2.26l.21.35-.21.34H148.1l-2.34.28-.34-.62.34-.62Zm0,1.93h2.26l.21.34-.21.34H148.1l-2.34.28-.34-.62.34-.62Zm.13-3.78h2.27l.21.34-.21.35h-2.27l-2.33.27-.34-.62.34-.61Zm0,5.63h2.27l.21.34-.21.35h-2.27l-2.33.27-.34-.62.34-.61ZM147.82,54h3.09l.21.34-.21.34h-3.09l-1.65.28-.34-.62.34-.55Zm.41,9.33h2.68l.21.35-.21.34h-2.68l-2,.28-.34-.62.27-.62ZM148.65,52h2.81l.21.35-.21.34h-2.54l-2.33.28-.35-.62.07-.62Zm.27,13.19h2.54l.21.34-.21.34h-2.54l-2.33.28-.35-.62.35-.62Zm.28-15h2.88l.21.34-.21.35H149.2l-2.34.34-.34-.69.34-.61Zm.34,16.89h2.68l.2.34-.2.35h-2.68L147.2,68l-.34-.62.34-.61Zm.34-18.74h3.23l.21.34-.21.34h-3.23l-2.33.28-.35-.62.35-.62Zm.41,20.59h3l.2.35-.2.34h-3l-2.33.28-.34-.62.34-.62Zm.55-22.52h3.64l.21.35-.21.34h-3.64l-2.33.28-.34-.62.34-.62Zm.42,24.45h3.43l.2.34-.2.34h-3.43l-2.34.28-.34-.62.34-.62Zm.75-26.3h4.12l.21.34-.21.35H152l-2.33.27-.35-.62.35-.61Zm.48,28.15h4.19l.21.34-.21.35h-4.19l-2.33.34-.35-.69.35-.61Zm40-11a26.18,26.18,0,0,0-11.53-22c5.35,4.66,8.1,12.08,8.1,19.29,0,13.39-9.07,24.85-23.21,24.85a23.24,23.24,0,0,1-15.65-6.11c5.49,6,11.8,8.79,18.88,8.79C183.25,86.49,192.52,75.44,192.52,61.71Zm-39-19H159l.21.34-.62.34h-5.08l-2.33.28-.35-.62.35-.62Zm.41,31.85h5.36l.55.35-.21.34h-5.7l-2.33.28-.34-.62.34-.62Zm-2.4-15.72c0-8.79,5.15-16.48,14.35-16.48S180.16,50.17,180.16,59s-5.08,16.48-14.28,16.48S151.53,67.61,151.53,58.82Zm27.6.14c0-8.24-4.74-15.59-13.25-15.59s-13.32,7.21-13.32,15.45,4.81,15.59,13.32,15.59S179.13,67.2,179.13,59Zm-23.69-18.2h22.8l.2.35-.2.34h-22.8l-2.33.28-.34-.62.34-.62Zm.62,35.64h22.25l.2.34-.2.35H156.06l-2.33.27-.35-.62.35-.62Zm4.19-4.19c-2.4-2.81-3.36-6.73-3.36-10.64,0-7.42,3.5-14.56,12.42-14.56a11,11,0,0,1,5.5,1.38,11.38,11.38,0,0,0-8.93-4.12c-8.24,0-12.43,7.14-12.43,14.55C153.45,64.31,155.58,69.74,160.25,72.21Zm-2.06-33.3h17.58l.2.34-.2.35H158.19l-2.33.27-.35-.62.35-.61Zm1,39.34h16.48l.21.35-.21.34H159.15l-2.33.27-.35-.61.35-.62Zm11.74-41.19.21.34-.21.34H163l-2.34.28-.34-.62.34-.34Zm-7.41,43.05h7.75l.21.34-.21.34H161.14l-.34-.34.34-.62Zm8.65-4.88-.21-.34.55-.35h7.9l.2.35-.2.34Zm.55-31.86-.62-.34.2-.34h8.18l.2.34-.2.34Zm2.47,1.86-.21-.35.21-.34h6.73l.2.34-.2.35Zm.2,28.15-.2-.35.2-.34h6.46l.2.34-.2.35Zm1.72-1.86-.2-.34.2-.34H183l.2.34-.2.34Zm.07-24.44-.21-.34.21-.35H183l.21.35-.21.34Zm1.3,22.52-.2-.34.2-.35h5.5l.2.35-.2.34Zm.14-20.6-.2-.34.2-.34h5.36l.2.34-.2.34Zm.89,1.86-.2-.35.2-.34h5.22l.21.34-.21.35Zm.07,16.89-.2-.35.2-.34h5.15l.21.34-.21.35Zm.62-1.86-.21-.34.21-.34h5.08l.21.34-.21.34Zm.07-13.18-.21-.34.21-.35h4.94l.21.35-.21.34Zm.62,1.92-.21-.34.21-.34h4.8l.21.34-.21.34Zm0,9.34-.21-.34.21-.35h4.8l.21.35-.21.34Zm.34-7.48-.2-.35.2-.34H186l.2.34-.2.35Zm0,5.63-.2-.35.2-.34h4.67l.21.34-.21.35Zm.14-3.78-.21-.34.21-.35h4.74l.2.35-.2.34Zm0,1.92-.21-.34.21-.34h4.74l.2.34-.2.34Z"/><path class="cls-1" d="M197.81,65V35.75h8.52V65.07c0,6.38,5.14,9.34,11.74,9.34,7,0,11.8-3,11.8-9.34V35.75h8.52V65c0,11.74-8.45,17.92-20.32,17.92C206.46,82.92,197.81,76.67,197.81,65Zm39.55,0V36.78h-6.45V65.07c0,7-5.22,10.37-12.84,10.37-7.14,0-12.77-3.23-12.77-10.37V36.78h-6.46V65c0,11.06,8.17,16.89,19.23,16.89C229.39,81.89,237.36,76.12,237.36,65ZM204.2,38l.2.34-.2.35h-1.86l-2.26.27-.35-.62.35-.34Zm-1.86,1.85h1.86l.2.35-.2.34h-1.86l-2.26.27-.35-.61.35-.62Zm0,1.86h1.86l.2.34-.2.34h-1.86l-2.26.28-.35-.62.35-.62Zm0,1.92h1.86l.2.34-.2.35h-1.86l-2.26.27-.35-.62.35-.62Zm0,1.85h1.86l.2.35-.2.34h-1.86l-2.26.27-.35-.61.35-.62Zm0,1.86h1.86l.2.34-.2.34h-1.86l-2.26.28-.35-.62.35-.62Zm0,1.92h1.86l.2.34-.2.35h-1.86l-2.26.27-.35-.62.35-.62Zm0,1.85h1.86l.2.35-.2.34h-1.86l-2.26.34-.35-.68.35-.62Zm0,1.86h1.86l.2.34-.2.34h-1.86l-2.26.28-.35-.62.35-.62Zm0,1.92h1.86l.2.34-.2.35h-1.86l-2.26.27-.35-.62.35-.55Zm0,1.85h1.86l.2.35-.2.34h-1.86l-2.26.27-.35-.61.35-.62Zm0,1.79h1.86l.2.34-.2.35h-1.86l-2.26.27-.35-.62.35-.62Zm0,1.85h1.86l.2.35-.2.34h-1.86l-2.26.27-.35-.61.35-.62Zm0,1.79h1.86l.2.34-.2.34h-1.86l-2.26.28-.35-.62.35-.62Zm0,1.78h1.86l.2.35-.2.34h-1.86l-2.26.27-.35-.61.35-.62Zm.07,1.86h1.85l.21.34-.21.34h-1.85l-2.33.28-.35-.62.35-.62Zm-2.54,9.88c2.47,3.09,6.8,8.17,18.06,8.17,12.5,0,21.35-6.11,21.35-18.81V35.75l3.44,3.44v28.9c0,11.33-8.86,19.16-21.77,19.16C214.29,87.25,203.85,84,199.87,75.64Zm2.75-8.1h1.92l.21.34-.21.35h-1.92l-2.34.27-.34-.62.34-.61Zm.34,1.79h2.27l.2.34-.2.34H203l-2.33.28-.35-.62.35-.62Zm.62,1.85h2.81l.21.34-.21.35h-2.81l-2.34.27-.34-.62.34-.61ZM204.4,73H208l.21.34-.21.34H204.4l-2.33.35-.34-.69.34-.62Zm1.38,1.78H211l.55.34-.2.35h-5.56l-2.34.27-.34-.62.34-.61Zm1.92,1.79h23.69l.2.34-.2.34H207.7l-2.34.28-.34-.62.34-.62Zm-.48-11.4V35.75l3.43,3.5V69.4a7,7,0,0,0,.34,2.54A7.48,7.48,0,0,1,207.22,65.14Zm3.29,13.18h18l.21.34-.21.35h-18l-2.33.27-.34-.62.34-.61ZM215,80.11h9.2l.2.34-.2.34H212.64l-.34-.34.34-.62Zm10-4.67-.2-.35.54-.34h7.83l.21.34-.21.35Zm3.37-1.79-.21-.34.21-.34h6l.2.34-.2.34ZM230,71.87l-.2-.35.2-.34h5.08l.21.34-.21.35ZM231,70l-.2-.34.2-.34h4.67l.21.34-.21.34Zm.69-1.78-.21-.35.21-.34h4.32l.21.34-.21.35ZM232,38.64l-.2-.35L232,38h4.26l.21.34-.21.35Zm0,1.85-.2-.34.2-.35h4.26l.21.35-.21.34Zm0,1.85-.2-.34.2-.34h4.26l.21.34-.21.34Zm0,1.93-.2-.35.2-.34h4.26l.21.34-.21.35Zm0,1.85-.2-.34.2-.35h4.26l.21.35-.21.34ZM232,48l-.2-.34.2-.34h4.26l.21.34-.21.34Zm0,1.93-.2-.35.2-.34h4.26l.21.34-.21.35Zm0,1.85-.2-.34.2-.35h4.26l.21.35-.21.34Zm0,1.85-.2-.34.2-.34h4.26l.21.34-.21.34Zm0,1.93-.2-.35.2-.34h4.26l.21.34-.21.35Zm0,1.85-.2-.34.2-.35h4.26l.21.35-.21.34Zm0,1.79-.2-.35.2-.34h4.26l.21.34-.21.35ZM232,61l-.2-.34.2-.35h4.26l.21.35-.21.34Zm0,1.78-.2-.34.2-.34h4.26l.21.34-.21.34Zm0,1.79-.2-.34.2-.35h4.26l.21.35-.21.34Zm.07,1.85-.27-.34.27-.34h4.19l.21.34-.21.34Z"/><path class="cls-1" d="M278.42,82,267,65.21h-7.21V82H251.3V35.75h18.47c9.48,0,16.34,5.15,16.34,14.15a14.25,14.25,0,0,1-9.88,13.73L289,82ZM266.68,66.1l1.86,2.75h-4.4V85.67h-9.4l-3.44-2.75h9.41V66.1ZM287,81,274.65,63.08c5.83-1.65,10.43-6.25,10.43-13.18,0-8.31-6.38-13.12-15.31-13.12H252.33V81h6.46V64.18h8.78L279,81ZM274.92,38l.21.34-.21.35H255.77l-2.27.27-.34-.62.34-.34ZM255.77,39.8h23.34l.21.35-.21.34H255.77l-2.27.27-.34-.61.34-.62Zm0,1.86h25.54l.2.34-.2.34H255.77l-2.27.28-.34-.62.34-.62Zm0,1.92h1.85l.21.34-.21.35h-1.85l-2.27.27-.34-.62.34-.62Zm0,1.85h1.85l.21.35-.21.34h-1.85l-2.27.27-.34-.61.34-.62Zm0,1.86h1.85l.21.34-.21.34h-1.85l-2.27.28-.34-.62.34-.62Zm0,1.92h1.85l.21.34-.21.35h-1.85l-2.27.27-.34-.62.34-.62Zm0,1.85h1.85l.21.35-.21.34h-1.85l-2.27.34-.34-.68.34-.62Zm0,1.86h1.85l.21.34-.21.34h-1.85l-2.27.28-.34-.62.34-.62Zm0,1.92h1.85l.21.34-.21.35h-1.85l-2.27.27-.34-.62.34-.55Zm0,1.78h1.85l.21.35-.21.34h-1.85l-2.27.28-.34-.62.34-.55Zm0,1.93h24.37l.21.34-.21.34H255.77l-2.27.28-.34-.62.34-.62Zm0,1.92h21.55l.21.34-.21.35H255.77l-2.27.27-.34-.62.34-.62Zm0,1.85h18l.21.35-.21.34h-18l-2.27.27-.34-.61.34-.62Zm0,1.86h1.85l.21.34-.21.34h-1.85l-2.27.28-.34-.62.34-.62Zm0,1.92h1.85l.21.34-.21.35h-1.85l-2.27.27-.34-.62.34-.62Zm0,1.85h1.85l.21.35-.21.34h-1.85l-2.27.27-.34-.61.34-.62Zm0,1.86h1.85l.21.34-.21.34h-1.85l-2.27.28-.34-.62.34-.62Zm0,1.92h1.85l.21.34-.21.35h-1.85l-2.27.27-.34-.62.34-.62Zm0,1.85h1.85l.21.35-.21.34h-1.85l-2.27.34-.34-.68.34-.62Zm0,1.86h1.85l.21.34-.21.34h-1.85l-2.27.28-.34-.62.34-.62Zm0,1.85h1.85l.21.34-.21.35h-1.85l-2.27.27-.34-.62.34-.61Zm0,1.86h1.85l.21.34-.21.34H253.5l-.34-.34.34-.62Zm13.45-21.84H258.79V43.51h10.84c5.43,0,8.45,2.13,8.45,6.45C278.08,54.91,275,57.31,269.22,57.31Zm.41-12.7h-9.81V56.28h9.4c5.15,0,7.83-2.06,7.83-6.32C277.05,46.33,274.44,44.61,269.63,44.61Zm-8.92.89h8.86c3.84,0,5.63,1,6.31,2.89a16.5,16.5,0,0,0-1.92-.14h-9.82v7.14h-3.43Zm8.38,19.36-.21-.34.21-.34h5.35l.21.34-.21.34Zm1.23,1.93-.21-.35.21-.34h5.43l.2.34-.2.35Zm1.31,1.85-.21-.34.21-.35h5.42l.21.35-.21.34Zm1.23,1.85-.2-.34.2-.34h5.43l.2.34-.2.34Zm1.37,1.93-.2-.35.2-.34h5.36l.21.34-.21.35Zm.55-15.11-.2-.27.55-.35h6.73l.2.35-.2.27Zm.83-13-.55-.35.2-.34h7.35l.21.34-.21.35Zm-.21,30-.2-.34.2-.35h5.49l.21.35-.21.34Zm1.31,1.85-.21-.34.21-.34h5.56l.2.34-.2.34Zm.61-20.59-.2-.35.2-.34h5.57l.2.34-.2.35Zm5.15,30.14L279,82.92h11.6l-13-18.81C282.68,62,287,58.27,287,50a14.93,14.93,0,0,0-2.26-8.3,14.82,14.82,0,0,1,5.7,11.88c0,6-4.05,10.36-8.17,12.49L296,85.67ZM277.8,46.12l-.2-.34.2-.35h5.57l.2.35-.2.34ZM277.87,78l-.2-.35.2-.34h5.63l.21.34-.21.35Zm.76-24.38-.21-.34.21-.34h4.87l.21.34-.21.34ZM278.9,48l-.2-.34.2-.34h4.88l.2.34-.2.34Zm.28,3.78-.21-.34.21-.35h4.67l.2.35-.2.34Zm0,28.08-.21-.34.21-.34h5.56l.21.34-.21.34Zm.07-29.93-.21-.35.21-.34h4.67l.2.34-.2.35Z"/><path class="cls-2" d="M119.05,121.65h15.7v.87H117.9V99.15h1.15Z"/><path class="cls-2" d="M160.4,112.58A10.11,10.11,0,0,1,159,118a9.35,9.35,0,0,1-4,3.61,13.7,13.7,0,0,1-6.05,1.28,12.23,12.23,0,0,1-8.37-2.81,9.58,9.58,0,0,1-3.19-7.58v-3.37a10.1,10.1,0,0,1,1.42-5.36,9.4,9.4,0,0,1,4.05-3.62,15.07,15.07,0,0,1,12.11,0,9.44,9.44,0,0,1,4.06,3.63,10,10,0,0,1,1.43,5.35Zm-1.13-3.53a8.75,8.75,0,0,0-2.82-6.8,12.51,12.51,0,0,0-15.15,0,8.87,8.87,0,0,0-2.81,6.92v3.42a9.49,9.49,0,0,0,1.27,4.94,8.35,8.35,0,0,0,3.62,3.3,12.38,12.38,0,0,0,5.51,1.15,10.81,10.81,0,0,0,7.58-2.55,9,9,0,0,0,2.8-7Z"/><path class="cls-2" d="M188.2,115.36a7.52,7.52,0,0,1-3.26,5.55,13.39,13.39,0,0,1-7.65,1.93,12.65,12.65,0,0,1-5.76-1.26,9.2,9.2,0,0,1-3.9-3.58,10.22,10.22,0,0,1-1.41-5.31v-3.61a10.39,10.39,0,0,1,1.37-5.33,9.25,9.25,0,0,1,3.89-3.64,12.64,12.64,0,0,1,5.81-1.28,13.41,13.41,0,0,1,7.63,1.92,7.49,7.49,0,0,1,3.28,5.52h-1.14a6.86,6.86,0,0,0-2.94-4.9,12,12,0,0,0-6.83-1.68,10.1,10.1,0,0,0-7.19,2.57,9,9,0,0,0-2.74,6.89v3.43a9.69,9.69,0,0,0,1.21,4.89,8.42,8.42,0,0,0,3.5,3.31,11,11,0,0,0,5.22,1.19,12.23,12.23,0,0,0,6.86-1.65,6.69,6.69,0,0,0,2.91-5Z"/><path class="cls-2" d="M211.39,115.54h-15l-3.4,7h-1.24l11.45-23.37h1.39l11.45,23.37h-1.24Zm-14.56-.87H211l-7.06-14.48Z"/><path class="cls-2" d="M238.62,100H227.49v22.51h-1.14V100H215.22v-.86h23.4Z"/><path class="cls-2" d="M265.05,112.58a10.2,10.2,0,0,1-1.41,5.37,9.43,9.43,0,0,1-4.05,3.61,13.7,13.7,0,0,1-6,1.28,12.22,12.22,0,0,1-8.36-2.81,9.58,9.58,0,0,1-3.2-7.58v-3.37a10.19,10.19,0,0,1,1.42-5.36,9.42,9.42,0,0,1,4.06-3.62,15,15,0,0,1,12.1,0,9.47,9.47,0,0,1,4.07,3.63,10.12,10.12,0,0,1,1.42,5.35Zm-1.13-3.53a8.78,8.78,0,0,0-2.81-6.8,10.93,10.93,0,0,0-7.61-2.56,10.79,10.79,0,0,0-7.54,2.55,8.84,8.84,0,0,0-2.82,6.92v3.42a9.49,9.49,0,0,0,1.27,4.94,8.43,8.43,0,0,0,3.63,3.3,12.34,12.34,0,0,0,5.5,1.15,10.86,10.86,0,0,0,7.59-2.55,9,9,0,0,0,2.79-7Z"/><path class="cls-2" d="M283.69,112.52H273.08v10H272V99.15h9.75A13,13,0,0,1,289,101a5.65,5.65,0,0,1,2.72,4.93,5.51,5.51,0,0,1-1.95,4.18,9,9,0,0,1-4.94,2.22l8.17,10v.23h-1.2Zm-10.61-.87h9.64a9.19,9.19,0,0,0,5.71-1.64,5,5,0,0,0,2.17-4.12,4.89,4.89,0,0,0-2.4-4.3,11.94,11.94,0,0,0-6.59-1.58h-8.53Z"/><path class="cls-3" d="M30.25,80.13,33.13,80a4.45,4.45,0,0,0,.72-.1.75.75,0,0,0,.59-.85.74.74,0,0,0-.68-.72,2.58,2.58,0,0,0-.48,0c-1.23,0-2.47.17-3.71.15A31.67,31.67,0,0,1,24.44,78a25.06,25.06,0,0,1-8.63-3.16A15.46,15.46,0,0,1,8.5,65.21,9.92,9.92,0,0,1,8.24,61a7,7,0,0,1,6.88-5.92,6.6,6.6,0,0,1,5.93,3,6.31,6.31,0,0,1,1,4.92,8.91,8.91,0,0,1-1.79,3.82,4.48,4.48,0,0,0-.32.44.85.85,0,0,0,.23,1.08.81.81,0,0,0,1-.11l.16-.18a11.47,11.47,0,0,0,1.95-3.5,8.1,8.1,0,0,0-.78-7.1,8.43,8.43,0,0,0-9.48-3.74A8.32,8.32,0,0,0,7.1,59a10.22,10.22,0,0,0-.36,5.69,16.75,16.75,0,0,0,6.9,10.68,24.69,24.69,0,0,0,9.23,3.91A37.31,37.31,0,0,0,30.25,80.13Z"/><path class="cls-3" d="M39.61,29.17c-.06-.94-.11-1.88-.19-2.82-.05-.61-.14-1.23-.25-1.84a34.12,34.12,0,0,0-2.9-8.81,5.29,5.29,0,0,0-.4-.74.75.75,0,0,0-.95-.28.71.71,0,0,0-.45.82,2.71,2.71,0,0,0,.25.67,29.61,29.61,0,0,1,2.34,6.16,25.23,25.23,0,0,1,.79,9.51,16.37,16.37,0,0,1-5.6,10.7,12.46,12.46,0,0,1-4.87,2.77,7.16,7.16,0,0,1-7.11-1.59,6.33,6.33,0,0,1-2.19-5.93c.69-4.15,4.28-6.5,8.28-6.23.75.05,1.5.22,2.25.33a.81.81,0,0,0,.93-.57.83.83,0,0,0-.54-.95,3.59,3.59,0,0,0-.47-.12A13.35,13.35,0,0,0,25.25,30a9,9,0,0,0-5.68,2.14,8.64,8.64,0,0,0-3.15,6.37A7.87,7.87,0,0,0,18.33,44,8.6,8.6,0,0,0,25,47.22a9.52,9.52,0,0,0,4.15-.83,17.2,17.2,0,0,0,8.89-9A20.19,20.19,0,0,0,39.61,29.17Z"/><path class="cls-3" d="M41.85,97.69c-1,.08-1.93.09-2.87.24a25,25,0,0,0-7.48,2.52,34.75,34.75,0,0,0-8.59,6.31c-.35.35-.7.71-1,1.1a.84.84,0,0,0,0,1.14.72.72,0,0,0,1.07-.06,3.64,3.64,0,0,0,.34-.34,31.6,31.6,0,0,1,9.53-7,21.68,21.68,0,0,1,7.87-2.2,15.14,15.14,0,0,1,8.78,1.95,10.78,10.78,0,0,1,4.17,3.9,6.58,6.58,0,0,1,.93,4,7.45,7.45,0,0,1-1.82,4.23,6.86,6.86,0,0,1-10.08.4A7.5,7.5,0,0,1,40.77,110c-.12-.61-.17-1.23-.26-1.84a.71.71,0,0,0-.77-.68.7.7,0,0,0-.73.72,3.84,3.84,0,0,0,0,.48,10.42,10.42,0,0,0,.87,3.72,8.23,8.23,0,0,0,8.8,5A7.85,7.85,0,0,0,54,114.49a8.46,8.46,0,0,0,1.53-9.09,9.89,9.89,0,0,0-3.39-4.21A16.81,16.81,0,0,0,41.85,97.69Z"/><path class="cls-3" d="M89,49.62a15.85,15.85,0,0,0-.32-1.95c-.86-3.07-3-4.83-5.94-5.86a.81.81,0,0,0-1,.51.8.8,0,0,0,.43,1c.41.2.85.34,1.27.55A6.58,6.58,0,0,1,86.7,47a5.48,5.48,0,0,1-.69,6.3A5.41,5.41,0,0,1,80.12,55a6.12,6.12,0,0,1-3.42-2.51A12,12,0,0,1,74.56,46a14,14,0,0,1,2-8A23.54,23.54,0,0,1,86,29.18a4.45,4.45,0,0,0,.48-.26.79.79,0,0,0,.33-1,.76.76,0,0,0-.92-.48,1.57,1.57,0,0,0-.51.19,25.65,25.65,0,0,0-9.34,8.12,15.93,15.93,0,0,0-3,11.62,13,13,0,0,0,2.32,6,7.5,7.5,0,0,0,7.55,3.3A7.09,7.09,0,0,0,89,49.62Z"/><path class="cls-3" d="M85,75.71c-.9.06-1.8.09-2.69.18a15.26,15.26,0,0,0-6.66,2.22,12.93,12.93,0,0,0-5.88,7.48,7,7,0,0,0,2.16,7.58,7.27,7.27,0,0,0,10.24-.36A7.08,7.08,0,0,0,84,86.87a8.24,8.24,0,0,0-.68-2.54.78.78,0,0,0-1.49.47,4.22,4.22,0,0,0,.21.69,6.92,6.92,0,0,1,.35,3.37,5.56,5.56,0,0,1-7.55,4.21,5.67,5.67,0,0,1-3.63-6.5A8.59,8.59,0,0,1,72,84.33a12.31,12.31,0,0,1,7.35-6.08,19.07,19.07,0,0,1,7.84-.76,26.8,26.8,0,0,1,8.11,2.05l.28.11a.79.79,0,0,0,1-.91c-.06-.43-.38-.59-.72-.73A28.92,28.92,0,0,0,85,75.71Z"/><path class="cls-3" d="M43.21,92.71a3.55,3.55,0,0,0-.74,0,1,1,0,0,0-.52.34.74.74,0,0,0,.58,1.15c.53.08,1.08.09,1.61.18a24.84,24.84,0,0,1,11.6,5.3,3.19,3.19,0,0,0,.43.32.76.76,0,0,0,.94-.15.71.71,0,0,0,.06-1,2.38,2.38,0,0,0-.42-.42,26.14,26.14,0,0,0-7.12-4.18A21.48,21.48,0,0,0,43.21,92.71Z"/><path class="cls-3" d="M24.72,38.86c-.11.3-.19.53-.29.75-.23.55-.49,1.1-.71,1.65a.8.8,0,0,0,.37,1.12.83.83,0,0,0,1.13-.5c.25-.55.48-1.1.72-1.65.1-.22.21-.42.33-.67.23.09.42.15.6.23.61.26,1.2.54,1.82.78a.81.81,0,1,0,.63-1.48c-.54-.26-1.1-.48-1.65-.73-.23-.1-.46-.22-.73-.35.11-.29.19-.53.29-.77.24-.55.49-1.09.71-1.65a.81.81,0,0,0-.42-1.11.83.83,0,0,0-1.05.46c-.06.11-.1.22-.15.33-.21.5-.42,1-.64,1.49-.09.19-.21.37-.33.58-.57-.24-1.08-.47-1.6-.68a6.85,6.85,0,0,0-.94-.38.78.78,0,0,0-.94.45.81.81,0,0,0,.33,1,3,3,0,0,0,.48.23Z"/><path class="cls-3" d="M49.06,108.43c.13-.61.24-1.09.33-1.58a7.65,7.65,0,0,0,.15-1.07.64.64,0,0,0-.47-.63.7.7,0,0,0-.83.16,1.85,1.85,0,0,0-.31.63c-.14.57-.24,1.14-.37,1.7a3.14,3.14,0,0,1-.18.44l-.81-.16c-.53-.1-1.06-.23-1.59-.29a.77.77,0,0,0-.88.64.8.8,0,0,0,.6.91l.29.07,1.53.33c.6.14.6.14.47.77s-.26,1.13-.36,1.7a.81.81,0,1,0,1.58.32c.13-.56.24-1.13.37-1.7,0-.19.11-.37.17-.57a4,4,0,0,1,.46.06c.61.12,1.21.27,1.82.38a.82.82,0,0,0,1-.6.81.81,0,0,0-.66-1c-.39-.1-.78-.17-1.17-.26Z"/><path class="cls-3" d="M81.92,50l1,.15a9.71,9.71,0,0,0,1.19.16.73.73,0,0,0,.79-.78.78.78,0,0,0-.73-.81c-.51-.1-1-.17-1.53-.27s-.43-.16-.39-.54c0-.12,0-.23.07-.35.06-.48.16-1,.18-1.43a.71.71,0,0,0-.62-.77.78.78,0,0,0-.89.53,4.69,4.69,0,0,0-.14.65c-.1.5-.2,1-.29,1.49h-.32c-.58-.09-1.15-.2-1.72-.27a.77.77,0,0,0-.93.64.78.78,0,0,0,.69,1c.49.1,1,.17,1.47.26s.54.16.47.64c0,.13-.06.27-.08.41A11.41,11.41,0,0,0,80,52a.71.71,0,0,0,.64.74.76.76,0,0,0,.87-.56,4.89,4.89,0,0,0,.14-.64C81.73,51.07,81.82,50.59,81.92,50Z"/><path class="cls-3" d="M34.87,28.05c0-.38-.06-1.06-.12-1.73a.79.79,0,0,0-.84-.76.83.83,0,0,0-.76.85,1.09,1.09,0,0,0,0,.18,19.89,19.89,0,0,1,0,3.78,18.24,18.24,0,0,1-1.26,5.29,2.35,2.35,0,0,0-.17.44.79.79,0,0,0,.48.93.74.74,0,0,0,.95-.28,3.7,3.7,0,0,0,.29-.6A21.69,21.69,0,0,0,34.87,28.05Z"/><path class="cls-3" d="M26.94,60.94c0-.54,0-1.08,0-1.61a.94.94,0,0,0-1.15-1,1,1,0,0,0-.73,1,26.72,26.72,0,0,0,.35,5.79,11.4,11.4,0,0,0,.28,1.29.92.92,0,0,0,1,.61.93.93,0,0,0,.8-.92,2.49,2.49,0,0,0,0-.47A21.19,21.19,0,0,1,26.94,60.94Z"/><path class="cls-3" d="M77.6,45.29c.41,0,.69-.27.78-.77a16,16,0,0,1,3-6.71,3.3,3.3,0,0,0,.34-.49.78.78,0,0,0-1.27-.89,2.09,2.09,0,0,0-.22.28,18.18,18.18,0,0,0-2.8,5.13,22.86,22.86,0,0,0-.64,2.43A.78.78,0,0,0,77.6,45.29Z"/><path class="cls-3" d="M15.27,45.81a2.08,2.08,0,0,0-.16-.41,15.46,15.46,0,0,1-1.28-3.54c-.22-.86-.4-1.72-.62-2.57a.92.92,0,1,0-1.8.4A30.94,30.94,0,0,0,13,45.28a7,7,0,0,0,.57,1.13.9.9,0,0,0,1,.4A1,1,0,0,0,15.27,45.81Z"/><path class="cls-3" d="M72.09,32a.86.86,0,0,0,.51.77.68.68,0,0,0,.82-.17,8.38,8.38,0,0,0,.52-.66,15.16,15.16,0,0,1,5-4.48,1.36,1.36,0,0,0,.39-.27.73.73,0,0,0,.16-.83.72.72,0,0,0-.7-.47,1.4,1.4,0,0,0-.56.17,16.68,16.68,0,0,0-5.91,5.41A2.66,2.66,0,0,0,72.09,32Z"/><path class="cls-3" d="M91.13,42.57a4.22,4.22,0,0,0-.39-.68c-1.41-1.78-2.84-3.56-4.27-5.34a2.81,2.81,0,0,0-.38-.39.77.77,0,0,0-.94,0,.8.8,0,0,0-.26,1,2.77,2.77,0,0,0,.31.45l4.2,5.24a4.79,4.79,0,0,0,.36.41.82.82,0,0,0,.9.11C91,43.23,91.09,43,91.13,42.57Z"/><path class="cls-3" d="M86.05,101.11a1,1,0,0,0,.86-.63l2.62-4.79a1.6,1.6,0,0,0,.18-.56.88.88,0,0,0-.55-1,.93.93,0,0,0-1.12.32,3.42,3.42,0,0,0-.23.42l-2.46,4.47a3.07,3.07,0,0,0-.24.48A.93.93,0,0,0,86.05,101.11Z"/><path class="cls-3" d="M16.26,69.15c-.82,0-1.22.63-.89,1.2a3,3,0,0,0,.47.54,23.23,23.23,0,0,0,5.37,3.8,1.93,1.93,0,0,0,.56.18.73.73,0,0,0,.77-.46.76.76,0,0,0-.14-.89,1.31,1.31,0,0,0-.38-.27,21.39,21.39,0,0,1-5.29-3.81A1.92,1.92,0,0,0,16.26,69.15Z"/><path class="cls-3" d="M70.69,16.21a1,1,0,0,0-.89.51.81.81,0,0,0,.08,1,2,2,0,0,0,.57.41q2.28,1.2,4.57,2.37a2.1,2.1,0,0,0,.85.22.83.83,0,0,0,.74-1.15,1.17,1.17,0,0,0-.48-.57c-1.66-.89-3.32-1.75-5-2.61A2.23,2.23,0,0,0,70.69,16.21Z"/><path class="cls-3" d="M50.91,14.09v0h2.88a.88.88,0,0,0,1-1,.9.9,0,0,0-1-.88c-1.77,0-3.55,0-5.33,0a2.39,2.39,0,0,0-.65.11.88.88,0,0,0-.58,1,.81.81,0,0,0,.73.75,3.85,3.85,0,0,0,.48,0Z"/><path class="cls-3" d="M59.91,12.9c-.83,0-1.19.29-1.21.86a.86.86,0,0,0,.79,1c.6.14,1.22.23,1.82.37l3.61.92a.93.93,0,1,0,.55-1.77,2.64,2.64,0,0,0-.4-.12c-1.08-.28-2.16-.57-3.25-.83C61.12,13.12,60.41,13,59.91,12.9Z"/><path class="cls-3" d="M24.42,22.07a.93.93,0,0,0-1.3-.86,1.7,1.7,0,0,0-.46.29q-1.87,1.5-3.73,3a2.34,2.34,0,0,0-.38.39A.94.94,0,0,0,19,26.35,1,1,0,0,0,20,26.1c.51-.44,1-.9,1.54-1.33.77-.62,1.54-1.21,2.32-1.81A1.07,1.07,0,0,0,24.42,22.07Z"/><path class="cls-3" d="M12.14,34.49A1,1,0,0,0,13,34q1.56-2,3.14-4a1.65,1.65,0,0,0,.22-.36.92.92,0,0,0-.81-1.29,1,1,0,0,0-.92.48c-1,1.32-2.07,2.64-3.1,4a1.74,1.74,0,0,0-.24.47A.92.92,0,0,0,12.14,34.49Z"/><path class="cls-3" d="M62,19.71a.73.73,0,0,0-.78-.79,1.9,1.9,0,0,0-.53.09,13.67,13.67,0,0,0-5.54,3.23,1.18,1.18,0,0,0-.23.27.81.81,0,0,0,.11,1,.76.76,0,0,0,1,.13,3.2,3.2,0,0,0,.42-.33,12.33,12.33,0,0,1,4.86-2.76,1.62,1.62,0,0,0,.28-.11A.75.75,0,0,0,62,19.71Z"/><path class="cls-3" d="M79.35,110.77a.93.93,0,0,0-.74-.78l-5.85-1.93a1.24,1.24,0,0,0-.41-.08.8.8,0,0,0-.48,1.47,2.24,2.24,0,0,0,.55.24c1.82.6,3.63,1.21,5.45,1.8a2.2,2.2,0,0,0,.7.15A.8.8,0,0,0,79.35,110.77Z"/><path class="cls-3" d="M50.05,131.83a16.16,16.16,0,0,0,.87,4.88,2.71,2.71,0,0,0,.17.39.8.8,0,0,0,1,.36.78.78,0,0,0,.45-.89,3,3,0,0,0-.11-.4,12.68,12.68,0,0,1-.72-5.18,8.7,8.7,0,0,0,0-1,.69.69,0,0,0-.84-.71.7.7,0,0,0-.67.72C50.15,130.59,50.11,131.21,50.05,131.83Z"/><path class="cls-3" d="M96.81,43.86a4.07,4.07,0,0,0-.16-.57c-.61-1.41-1.24-2.82-1.86-4.22a2,2,0,0,0-.27-.47.93.93,0,0,0-1.13-.26.91.91,0,0,0-.45,1.07,2.66,2.66,0,0,0,.16.39c.49,1.07,1,2.14,1.46,3.22.2.46.35.94.57,1.39a.88.88,0,0,0,1.05.49A.94.94,0,0,0,96.81,43.86Z"/><path class="cls-3" d="M99.42,54.15c-.1-.61-.2-1.35-.34-2.07-.2-1-.41-2-.62-3a.94.94,0,0,0-.69-.82.9.9,0,0,0-1.12,1.11c.13.67.32,1.32.44,2,.19,1,.34,2,.5,3a1,1,0,0,0,1,.88A1,1,0,0,0,99.42,54.15Z"/><path class="cls-3" d="M99.84,61.57h0c0-.69,0-1.37,0-2a.78.78,0,0,0-.88-.72.8.8,0,0,0-.86.74c0,.24,0,.48,0,.72,0,.8,0,1.6-.08,2.4s-.1,1.56-.12,2.34a.82.82,0,0,0,.74.86.86.86,0,0,0,1-.64,2.07,2.07,0,0,0,.08-.42Z"/><path class="cls-3" d="M45.85,23.1a13.52,13.52,0,0,0-1.43,0,.75.75,0,0,0-.67.73.78.78,0,0,0,.58.81,2.41,2.41,0,0,0,.53.07,18.62,18.62,0,0,1,2,.12c1.1.18,2.19.45,3.28.68A.85.85,0,0,0,51.18,25a.84.84,0,0,0-.56-1c-.13-.05-.27-.08-.4-.12A17.55,17.55,0,0,0,45.85,23.1Z"/><path class="cls-3" d="M2.8,60.73h0V62a1.09,1.09,0,0,0,0,.18,4.52,4.52,0,0,0,.06.53.94.94,0,0,0,1,.74.9.9,0,0,0,.78-.92c0-1.6.08-3.2.1-4.8a.94.94,0,0,0-.92-1,1,1,0,0,0-.93,1C2.9,58.69,2.85,59.71,2.8,60.73Z"/><path class="cls-3" d="M3.42,67.76c.16.8.35,1.86.57,2.92.12.59.25,1.17.42,1.74a.9.9,0,0,0,1.76-.34,1.36,1.36,0,0,0,0-.29c-.3-1.51-.59-3-.9-4.52a1,1,0,0,0-1-.84C3.71,66.5,3.4,66.9,3.42,67.76Z"/><path class="cls-3" d="M18.77,81.35a.84.84,0,0,0-.45-.83.83.83,0,0,0-.94.16c-.28.29-.52.61-.77.92-.95,1.16-1.89,2.33-2.86,3.48a.93.93,0,0,0,0,1.25A.81.81,0,0,0,15,86.17c1.19-1.44,2.36-2.88,3.53-4.33A2.16,2.16,0,0,0,18.77,81.35Z"/><path class="cls-3" d="M94.06,59.11a.84.84,0,0,0,.77-.81.8.8,0,0,0-.62-.79,12.19,12.19,0,0,0-6,0,1.11,1.11,0,0,0-.27.12.79.79,0,0,0-.35.94.68.68,0,0,0,.72.51A3,3,0,0,0,89,59a10.59,10.59,0,0,1,3.64-.09C93.08,58.93,93.55,59,94.06,59.11Z"/><path class="cls-3" d="M28.39,84.36c.11,0,.25,0,.39,0a.71.71,0,0,0,.68-.7c0-.47-.21-.76-.75-.82l-4.23-.45c-.5,0-1-.1-1.5-.12a.7.7,0,0,0-.78.58.74.74,0,0,0,.56.92,2.91,2.91,0,0,0,.59.1l2,.21Z"/><path class="cls-3" d="M9.1,84.36a1.23,1.23,0,0,0,.39-.14,12.07,12.07,0,0,0,4.06-4,1.62,1.62,0,0,0,.19-.56.7.7,0,0,0-.43-.78.72.72,0,0,0-.87.2,1.48,1.48,0,0,0-.22.29,10.63,10.63,0,0,1-3.35,3.39,1.92,1.92,0,0,0-.43.32A.81.81,0,0,0,8.3,84,.73.73,0,0,0,9.1,84.36Z"/><path class="cls-3" d="M17.06,88.12a.71.71,0,0,0-.76.68,2.57,2.57,0,0,0,0,.48A12.2,12.2,0,0,0,18,94.42a1.74,1.74,0,0,0,.29.38.74.74,0,0,0,.88.17.71.71,0,0,0,.41-.79,2,2,0,0,0-.26-.66A10,10,0,0,1,18,90c-.08-.42-.12-.84-.22-1.25A.69.69,0,0,0,17.06,88.12Z"/><path class="cls-3" d="M91.52,64.15v0h2.71a.81.81,0,1,0,0-1.62c-.69,0-1.37,0-2,0-1.08,0-2.16-.07-3.24-.08a.8.8,0,0,0-.88.79c0,.51.3.81.88.84Z"/><path class="cls-3" d="M45.43,88.15a.94.94,0,0,0-1,.4.93.93,0,0,0,.47,1.39c1.34.51,2.7,1,4.06,1.43a.9.9,0,0,0,1.14-.61.94.94,0,0,0-.56-1.17l-.28-.1-3.44-1.22Z"/><path class="cls-3" d="M13.77,93.09A.91.91,0,0,0,13,94.5c.62,1.25,1.29,2.48,2,3.7a.94.94,0,0,0,1.29.39.88.88,0,0,0,.3-1.25c-.65-1.26-1.32-2.51-2-3.76A.85.85,0,0,0,13.77,93.09Z"/><path class="cls-4" d="M38.06,129.86a6.19,6.19,0,0,0,.67-.36,28.55,28.55,0,0,1,4-2.46,1.51,1.51,0,0,0,.39-.27.69.69,0,0,0,.18-.82.65.65,0,0,0-.71-.44,1.81,1.81,0,0,0-.68.18,24.57,24.57,0,0,0-4.13,2.53,2,2,0,0,0-.39.37.68.68,0,0,0-.08.83A.82.82,0,0,0,38.06,129.86Z"/><path class="cls-3" d="M21.69,52.16c.53,0,.82-.17.91-.53a.77.77,0,0,0-.49-1l-.23-.08a24.75,24.75,0,0,1-4.31-1.66,2.25,2.25,0,0,0-.62-.2.69.69,0,0,0-.79.41.71.71,0,0,0,.18.87,1.89,1.89,0,0,0,.5.33,26,26,0,0,0,4.41,1.72Z"/><path class="cls-3" d="M61.1,88a2.64,2.64,0,0,0-.1-.36c-.58-1.19-1.15-2.38-1.76-3.55A.94.94,0,0,0,58,83.62a.87.87,0,0,0-.47,1.16c.59,1.28,1.22,2.55,1.88,3.81a.88.88,0,0,0,1.07.33A1,1,0,0,0,61.1,88Z"/><path class="cls-3" d="M62.68,95v-.66a1.1,1.1,0,0,0,0-.18.84.84,0,0,0-.72-.77.87.87,0,0,0-1,.52,1.76,1.76,0,0,0-.11.64,14,14,0,0,1-.42,3.15,2,2,0,0,0-.08.59.86.86,0,0,0,.64.84.93.93,0,0,0,1.21-.76A14.71,14.71,0,0,0,62.68,95Z"/><path class="cls-3" d="M28.88,116.74a1.11,1.11,0,0,0-.93.58.91.91,0,0,0,.12,1c.75,1,1.51,1.92,2.29,2.86a.91.91,0,0,0,1.37.17,1,1,0,0,0,.1-1.36c-.75-1-1.51-1.91-2.3-2.84A2.39,2.39,0,0,0,28.88,116.74Z"/><path class="cls-3" d="M68.52,80.34a3.25,3.25,0,0,0,.74-.45c.74-.73,1.44-1.49,2.15-2.24a4.08,4.08,0,0,0,.52-.66,1,1,0,0,0-.09-1.12.94.94,0,0,0-1-.17,2.68,2.68,0,0,0-.53.48l-2.21,2.35a2.13,2.13,0,0,0-.29.31,1,1,0,0,0,0,1A1,1,0,0,0,68.52,80.34Z"/><path class="cls-3" d="M31.13,23.61a.68.68,0,0,0-.71-.72,1.45,1.45,0,0,0-.72.25c-1.14.77-2.27,1.57-3.4,2.36a1.79,1.79,0,0,0-.36.31.79.79,0,0,0,.46,1.27,1.29,1.29,0,0,0,.76-.26c.86-.56,1.69-1.15,2.52-1.74l1.08-.76A.78.78,0,0,0,31.13,23.61Z"/><path class="cls-3" d="M86.21,80.33a.77.77,0,0,0-.51-.73,1.35,1.35,0,0,0-.59-.09c-.91.09-1.83.18-2.73.32a8.77,8.77,0,0,0-1.5.41.8.8,0,0,0-.53,1.06.82.82,0,0,0,1.07.5c.1,0,.19-.07.29-.09.5-.12,1-.28,1.51-.35.71-.11,1.43-.15,2.14-.21C85.9,81.1,86.21,80.81,86.21,80.33Z"/><path class="cls-3" d="M61.25,109.75c-.64,0-1.32.08-2,.15a.8.8,0,0,0-.73.81.81.81,0,0,0,.74.8c.2,0,.4,0,.6,0,.93,0,1.87,0,2.8,0,.36,0,.72,0,1.08,0a.73.73,0,0,0,.74-.77c0-.49-.3-.81-.88-.86C62.84,109.85,62.06,109.81,61.25,109.75Z"/><path class="cls-3" d="M94.56,82.39a.77.77,0,0,0-.57-.73c-1.1-.44-2.21-.89-3.33-1.32a3.65,3.65,0,0,0-.8-.22.81.81,0,0,0-.93.57.83.83,0,0,0,.46,1c.13,0,.27.07.4.12l3.35,1.27a2.72,2.72,0,0,0,.44.18C94.11,83.38,94.54,83,94.56,82.39Z"/><path class="cls-3" d="M43.18,83.73a1,1,0,0,0-1,.76.85.85,0,0,0,.6,1c1.16.35,2.34.67,3.52,1a.93.93,0,0,0,.41-1.8c-.13-.05-.27-.07-.4-.11l-2.72-.73Z"/><path class="cls-3" d="M49.36,124h0c0,.72,0,1.44,0,2.16a.81.81,0,0,0,.78.83.87.87,0,0,0,.83-.72,4.89,4.89,0,0,0,0-.54l.06-2.81a8.78,8.78,0,0,0,0-1,1.33,1.33,0,0,0-.29-.69.66.66,0,0,0-.82-.16.8.8,0,0,0-.51.74C49.43,122.54,49.39,123.28,49.36,124Z"/><path class="cls-3" d="M75.78,86.62c0,.26,0,.52,0,.78a1.37,1.37,0,0,0,.08.35c.15.56.49.8,1,.7a.79.79,0,0,0,.59-1,4.5,4.5,0,0,1,.66-3.16,1.93,1.93,0,0,0,.27-.71.76.76,0,0,0-1.09-.77,1,1,0,0,0-.43.39A6.21,6.21,0,0,0,75.78,86.62Z"/><path class="cls-3" d="M33.55,107.62c0-.61-.48-1-.93-.9a1.1,1.1,0,0,0-.51.3,14.28,14.28,0,0,0-2.46,3.6,1.58,1.58,0,0,0-.12.52.73.73,0,0,0,.71.75.79.79,0,0,0,.82-.48,14.61,14.61,0,0,1,2.25-3.32A2.09,2.09,0,0,0,33.55,107.62Z"/><path class="cls-3" d="M35.35,105.77a1.91,1.91,0,0,0,.2,0,29.72,29.72,0,0,1,4.18-.73.79.79,0,0,0,.66-.75.81.81,0,0,0-.66-.81,1.72,1.72,0,0,0-.6,0c-.79.11-1.58.21-2.36.36a14.34,14.34,0,0,0-1.69.41.75.75,0,0,0-.53.94A.73.73,0,0,0,35.35,105.77Z"/><path class="cls-3" d="M66,33.55a.78.78,0,0,0-.82.5.81.81,0,0,0,.31,1c.35.27.72.5,1.08.75.76.51,1.51,1,2.28,1.54a1.57,1.57,0,0,0,.77.26.64.64,0,0,0,.65-.53.8.8,0,0,0-.28-.91c-1.2-.82-2.41-1.64-3.62-2.44A1,1,0,0,0,66,33.55Z"/><path class="cls-3" d="M26.59,73.81c0-.09-.11-.31-.21-.52-.54-1.08-1.08-2.14-1.63-3.21a3.17,3.17,0,0,0-.27-.47.79.79,0,0,0-1-.24.82.82,0,0,0-.39,1,3.31,3.31,0,0,0,.15.33c.58,1.14,1.15,2.28,1.74,3.42a1.49,1.49,0,0,0,.3.44.76.76,0,0,0,.88.15A.81.81,0,0,0,26.59,73.81Z"/><path class="cls-3" d="M27.58,90.55A2.65,2.65,0,0,0,27.4,90c-.58-1.16-1.17-2.32-1.76-3.47a1.57,1.57,0,0,0-.18-.31.86.86,0,0,0-1-.18.8.8,0,0,0-.33.94,4.25,4.25,0,0,0,.21.49L26,90.77a2.06,2.06,0,0,0,.25.4.77.77,0,0,0,.87.24A.82.82,0,0,0,27.58,90.55Z"/><path class="cls-3" d="M84.52,96.83a.79.79,0,0,0-1.28-.73,23,23,0,0,1-3.46,2,1.06,1.06,0,0,0-.47.51.7.7,0,0,0,.16.78.82.82,0,0,0,1,.13,16.15,16.15,0,0,0,3.76-2.21A1.59,1.59,0,0,0,84.52,96.83Z"/><path class="cls-3" d="M91.75,48.81c.19,1.48.37,2.87.56,4.26a.73.73,0,0,0,.78.67c.56,0,.86-.39.78-1-.12-.85-.23-1.7-.35-2.55-.07-.54-.15-1.07-.24-1.6a.75.75,0,0,0-.57-.64.73.73,0,0,0-.79.29A2.41,2.41,0,0,0,91.75,48.81Z"/><path class="cls-3" d="M66.84,91a3,3,0,0,0-.08-.34c-.34-1.2-.69-2.41-1-3.61a2.18,2.18,0,0,0-.2-.5.82.82,0,0,0-1-.31.75.75,0,0,0-.43.84,2.58,2.58,0,0,0,.09.35c.35,1.22.71,2.44,1.07,3.67a2.62,2.62,0,0,0,.15.39.78.78,0,0,0,.86.39A.82.82,0,0,0,66.84,91Z"/><path class="cls-3" d="M10.35,38.21a1,1,0,0,0-.62-1,.86.86,0,0,0-1.06.34c-.52,1-1,1.91-1.46,2.9A.9.9,0,0,0,8,41.73a.87.87,0,0,0,1-.52c.45-.87.88-1.75,1.31-2.64A1.87,1.87,0,0,0,10.35,38.21Z"/><path class="cls-3" d="M81.37,108.66a.91.91,0,0,0,.84-.51c.35-.53.69-1.07,1-1.61a9.85,9.85,0,0,0,.55-.93.94.94,0,0,0-1.71-.79c-.51.77-1,1.55-1.49,2.33a1.3,1.3,0,0,0-.14.26A.91.91,0,0,0,81.37,108.66Z"/><path class="cls-3" d="M30.41,76a.92.92,0,0,0,.81-1.45c-.48-.83-1-1.64-1.49-2.46a1,1,0,0,0-1.29-.39.89.89,0,0,0-.38,1.24c.5.91,1.06,1.79,1.61,2.68A.8.8,0,0,0,30.41,76Z"/><path class="cls-3" d="M93.54,87.14a1,1,0,0,0-.63-1,.88.88,0,0,0-1.1.4c-.46.95-.9,1.92-1.29,2.9A.89.89,0,0,0,91,90.61a.91.91,0,0,0,1.28-.51c.41-.87.79-1.76,1.17-2.64A1.81,1.81,0,0,0,93.54,87.14Z"/><path class="cls-3" d="M31.61,17.9A.94.94,0,0,0,30.2,17c-.88.41-1.75.87-2.6,1.35A.94.94,0,1,0,28.5,20c.88-.44,1.74-.9,2.61-1.36A.92.92,0,0,0,31.61,17.9Z"/><path class="cls-3" d="M27.26,53.5a.94.94,0,0,0,.93-.71c.33-.84.67-1.67,1-2.5a2.09,2.09,0,0,0,.08-.23.92.92,0,0,0-.5-1.1.9.9,0,0,0-1.16.3,1.57,1.57,0,0,0-.18.31c-.32.8-.65,1.59-1,2.39a2,2,0,0,0-.13.64A.86.86,0,0,0,27.26,53.5Z"/><path class="cls-3" d="M24.82,111.35a1,1,0,0,0-.74,1.54c.55.78,1.1,1.57,1.67,2.34a.94.94,0,0,0,1.37.26,1,1,0,0,0,.17-1.35c-.55-.81-1.13-1.6-1.7-2.4A.91.91,0,0,0,24.82,111.35Z"/><path class="cls-3" d="M36.48,125.51a2.29,2.29,0,0,0-.33-.59c-.58-.66-1.18-1.3-1.78-2a2.11,2.11,0,0,0-.36-.31.91.91,0,0,0-1.38.71,1,1,0,0,0,.29.82l1.86,2a1.35,1.35,0,0,0,.32.26C35.76,126.86,36.5,126.41,36.48,125.51Z"/><path class="cls-3" d="M77.19,115.16a.94.94,0,0,0-.54-1,.86.86,0,0,0-1.08.27c-.63.8-1.24,1.62-1.83,2.44a.88.88,0,0,0-.12.86.9.9,0,0,0,1.52.32c.69-.82,1.31-1.71,1.94-2.58A.79.79,0,0,0,77.19,115.16Z"/><path class="cls-3" d="M39.5,15.5a.83.83,0,0,0,.2,0l2.79-.63a1.09,1.09,0,0,0,.34-.13.94.94,0,0,0,.43-1,.89.89,0,0,0-.85-.71,2.35,2.35,0,0,0-.59.05c-.74.15-1.48.32-2.22.49a2.62,2.62,0,0,0-.56.18.92.92,0,0,0,.46,1.75Z"/><path class="cls-3" d="M59.75,35.74a.93.93,0,0,0-1,.46.9.9,0,0,0,.48,1.29c.53.23,1.08.42,1.62.64.38.16.76.35,1.15.5a.89.89,0,0,0,1-.17,1,1,0,0,0-.35-1.6q-1.23-.53-2.49-1A2.35,2.35,0,0,0,59.75,35.74Z"/><path class="cls-3" d="M51.31,87c.56,0,1.12-.06,1.67-.11a.85.85,0,0,0,.8-.88.9.9,0,0,0-1-1h-3A.93.93,0,0,0,49,86a.85.85,0,0,0,.84.9C50.31,86.94,50.81,87,51.31,87Z"/><path class="cls-3" d="M71.91,113.87a.85.85,0,0,0-.39-.73,12,12,0,0,0-3.14-2,1.41,1.41,0,0,0-.46-.11.75.75,0,0,0-.81.88.91.91,0,0,0,.67.77,10.77,10.77,0,0,1,2.45,1.49,4.46,4.46,0,0,0,.42.34A.8.8,0,0,0,71.91,113.87Z"/><path class="cls-3" d="M51.24,143a.94.94,0,0,0,.95-1.27,1.81,1.81,0,0,0-.49-.58c-.61-.52-1.23-1-1.85-1.52a2.14,2.14,0,0,0-.39-.28.89.89,0,0,0-1.32.72,1,1,0,0,0,.39.89c.72.59,1.44,1.2,2.17,1.78A2.58,2.58,0,0,0,51.24,143Z"/><path class="cls-3" d="M70.51,123.7a1,1,0,0,0-.57-1,.91.91,0,0,0-1,.26c-.64.74-1.28,1.49-1.9,2.25a.94.94,0,0,0,.08,1.34.89.89,0,0,0,1.33-.15c.63-.7,1.24-1.42,1.84-2.15A2.2,2.2,0,0,0,70.51,123.7Z"/><path class="cls-3" d="M70.55,42.92a3.69,3.69,0,0,0-.46-.74c-.63-.61-1.28-1.21-1.94-1.78s-1.13-.47-1.49,0-.28,1,.28,1.46l1.81,1.67a2,2,0,0,0,.32.26.94.94,0,0,0,1,0A1.05,1.05,0,0,0,70.55,42.92Z"/><path class="cls-3" d="M80.66,22.16a1,1,0,0,0-1,.5,1,1,0,0,0,.22,1.11c.76.65,1.53,1.29,2.32,1.9a1.17,1.17,0,0,0,.72.2.73.73,0,0,0,.71-.55.93.93,0,0,0-.27-1.09c-.73-.62-1.47-1.24-2.22-1.83A1.84,1.84,0,0,0,80.66,22.16Z"/><path class="cls-3" d="M37.48,80.92a.91.91,0,0,0-1,.57.8.8,0,0,0,.26,1,31.12,31.12,0,0,0,2.85,1.66.87.87,0,0,0,1.22-1,1,1,0,0,0-.54-.75c-.78-.45-1.55-.91-2.33-1.35A2.21,2.21,0,0,0,37.48,80.92Z"/><path class="cls-3" d="M6.64,75.92a1,1,0,0,0-.89,1.33c.27.92.58,1.82.91,2.72a.91.91,0,0,0,1.13.63.92.92,0,0,0,.62-1.19c-.29-1-.63-1.94-1-2.9A.94.94,0,0,0,6.64,75.92Z"/><path class="cls-3" d="M65.26,80.93a1.41,1.41,0,0,0-.41.14c-.85.48-1.7,1-2.53,1.48a1,1,0,0,0-.42.61.88.88,0,0,0,1.25,1,15.09,15.09,0,0,0,1.63-.88A11.69,11.69,0,0,0,66,82.47a.83.83,0,0,0,.23-1A.91.91,0,0,0,65.26,80.93Z"/><path class="cls-3" d="M43.92,134.49a1,1,0,0,0-.36-.73l-1.82-1.9a2,2,0,0,0-.32-.27.87.87,0,0,0-1.1.1.86.86,0,0,0-.21,1.09,1.75,1.75,0,0,0,.28.39l1.83,1.88a2,2,0,0,0,.32.27A.92.92,0,0,0,43.92,134.49Z"/><path class="cls-3" d="M5.86,49.81a2.19,2.19,0,0,0-.3-.65.88.88,0,0,0-1.51.4,14,14,0,0,0-.31,1.59c-.08.53-.17,1.06-.2,1.59A.9.9,0,0,0,5.31,53C5.51,52,5.67,51,5.86,49.81Z"/><path class="cls-3" d="M10.59,86.48a.88.88,0,0,0-.79,1.28c.37.91.79,1.79,1.22,2.67a.92.92,0,0,0,1.21.49.9.9,0,0,0,.45-1.21c-.4-.92-.83-1.82-1.27-2.72A.83.83,0,0,0,10.59,86.48Z"/><path class="cls-3" d="M20.44,104.08c0-.09-.09-.27-.17-.42a4.77,4.77,0,0,0-.36-.62c-.39-.65-.77-1.31-1.19-2a.83.83,0,0,0-1-.35.87.87,0,0,0-.56,1,1.11,1.11,0,0,0,.13.4c.49.82,1,1.65,1.48,2.47a.75.75,0,0,0,.25.25.88.88,0,0,0,1,.07A.92.92,0,0,0,20.44,104.08Z"/><path class="cls-3" d="M75.66,70.42a2.07,2.07,0,0,0-.32-.54.9.9,0,0,0-1.44.32c-.44.83-.85,1.68-1.25,2.52a1,1,0,0,0,0,1,.87.87,0,0,0,1.5-.1c.49-.88.92-1.81,1.36-2.73A2.06,2.06,0,0,0,75.66,70.42Z"/><path class="cls-3" d="M92,34.38a2.55,2.55,0,0,0-.22-.51c-.5-.74-1-1.47-1.55-2.2a1.2,1.2,0,0,0-.24-.26.84.84,0,0,0-.95-.13.77.77,0,0,0-.5.81,1.53,1.53,0,0,0,.23.66c.48.73,1,1.44,1.5,2.16a2,2,0,0,0,.23.27.83.83,0,0,0,.94.19C91.81,35.23,92,35,92,34.38Z"/><path class="cls-3" d="M40.58,38.59a5.23,5.23,0,0,0,.51-.16l2.22-.9a2.11,2.11,0,0,0,.43-.2.87.87,0,0,0-.46-1.6,1.76,1.76,0,0,0-.64.11c-.8.31-1.59.64-2.38,1a2.22,2.22,0,0,0-.37.21.89.89,0,0,0-.28,1A.87.87,0,0,0,40.58,38.59Z"/><path class="cls-3" d="M98.83,70.48c0-.63-.25-1-.67-1.07a.85.85,0,0,0-1,.5,2.07,2.07,0,0,0-.13.4c-.19.86-.37,1.71-.55,2.57a1,1,0,0,0,.66,1.22,1,1,0,0,0,1.1-.78c.09-.28.15-.57.22-.87C98.57,71.75,98.71,71.05,98.83,70.48Z"/><path class="cls-3" d="M61,106c-.11-1.18-.22-2.41-.33-3.64a1.1,1.1,0,0,0,0-.18.8.8,0,0,0-.79-.61.78.78,0,0,0-.7.7,1.93,1.93,0,0,0,0,.48c.08,1.13.16,2.27.25,3.4a.83.83,0,0,0,.85.83C60.65,106.9,61,106.53,61,106Z"/><path class="cls-3" d="M9.23,52.52a2.69,2.69,0,0,0,.43-.18c.93-.54,1.85-1.1,2.78-1.65a.86.86,0,0,0,.5-.93.82.82,0,0,0-1.3-.52c-1,.56-1.92,1.14-2.87,1.72a.88.88,0,0,0-.28.22.76.76,0,0,0-.15.88A.8.8,0,0,0,9.23,52.52Z"/><path class="cls-3" d="M50.12,34.4v0l-1.9.19a.88.88,0,0,0-.36,1.62,1.49,1.49,0,0,0,.69.13c.94,0,1.87-.09,2.81-.14a.85.85,0,0,0,.86-.89.8.8,0,0,0-.84-.88C51,34.38,50.54,34.4,50.12,34.4Z"/><path class="cls-3" d="M45.93,19.92v0h.24c.55,0,.86-.31.87-.79s-.26-.79-.82-.83l-3.35-.2a.83.83,0,0,0-1,.76c0,.5.26.8.86.85Z"/><path class="cls-3" d="M39.26,119.17a.88.88,0,0,0,.74-.54.78.78,0,0,0-.15-.89,8.43,8.43,0,0,1-1.76-2.68.77.77,0,0,0-1.06-.39.8.8,0,0,0-.42,1,8.06,8.06,0,0,0,2,3.13A3.21,3.21,0,0,0,39.26,119.17Z"/><path class="cls-3" d="M46.39,121q0-.63-.78-.84l-3.06-.83a.84.84,0,0,0-1.09.44.81.81,0,0,0,.48,1.08,15.94,15.94,0,0,0,3.52,1A.82.82,0,0,0,46.39,121Z"/><path class="cls-3" d="M58.09,93.63a4.15,4.15,0,0,0-.24-.52c-.5-.82-1-1.64-1.51-2.45a3.42,3.42,0,0,0-.26-.4.83.83,0,0,0-1-.24.79.79,0,0,0-.38,1,1.3,1.3,0,0,0,.16.31c.56.92,1.13,1.84,1.7,2.75a1,1,0,0,0,.22.28.72.72,0,0,0,.82.17A.83.83,0,0,0,58.09,93.63Z"/><path class="cls-3" d="M38.47,94.55a.7.7,0,0,0-.6-.77,1.81,1.81,0,0,0-.65.07c-1.14.34-2.29.7-3.43,1.06a.8.8,0,0,0-.63.94c.11.43.52.62,1.07.49a2.19,2.19,0,0,0,.34-.1l2-.61,1.37-.44A.7.7,0,0,0,38.47,94.55Z"/><path class="cls-3" d="M46.05,128.78a.77.77,0,0,0-.77.75,2.83,2.83,0,0,0,.09.65c.2.95.41,1.91.61,2.86a.82.82,0,1,0,1.62-.23c-.1-.57-.23-1.13-.35-1.7s-.23-1.09-.36-1.63A.79.79,0,0,0,46.05,128.78Z"/><path class="cls-3" d="M65.15,116a.91.91,0,0,0-.6-.74l-1.37-.58c-.59-.25-1.17-.51-1.77-.74a.79.79,0,0,0-.75,1.38,2.64,2.64,0,0,0,.47.25l2.14.92a7.54,7.54,0,0,0,.9.34A.8.8,0,0,0,65.15,116Z"/><path class="cls-3" d="M77.59,103.3l-2.47.12a.73.73,0,0,0-.78.79.8.8,0,0,0,.91.81c.7,0,1.39-.06,2.09-.09.4,0,.8,0,1.2,0a.81.81,0,1,0,0-1.61Z"/><path class="cls-3" d="M10.15,47c.58,0,.86-.17.94-.58a.77.77,0,0,0-.56-.93c-.11,0-.23-.06-.34-.09l-2.93-.64c-.6-.13-1,.07-1.14.55s.15.83.79,1c.89.22,1.79.4,2.69.6Z"/><path class="cls-4" d="M39.87,123.33a3.91,3.91,0,0,0-.43-.61c-.72-.75-1.46-1.47-2.19-2.21a1.49,1.49,0,0,0-.27-.23.71.71,0,0,0-.79,0,.67.67,0,0,0-.41.73,1.51,1.51,0,0,0,.31.68c.58.63,1.19,1.23,1.8,1.84a4.78,4.78,0,0,0,.58.52.86.86,0,0,0,1,.07A.91.91,0,0,0,39.87,123.33Z"/><path class="cls-3" d="M55,17.61c0-.81-.59-1.16-1.18-.82s-1,.65-1.5,1-.94.61-1.38,1a.77.77,0,0,0-.19,1.11.73.73,0,0,0,1.07.17c.95-.62,1.9-1.25,2.83-1.91A1.48,1.48,0,0,0,55,17.61Z"/><path class="cls-3" d="M54.8,121.63c.38,0,.57-.14.71-.6.37-1.18.72-2.37,1.07-3.55a1.54,1.54,0,0,0,.05-.48.66.66,0,0,0-1.06-.5,1.12,1.12,0,0,0-.35.52c-.18.49-.31,1-.46,1.49-.22.73-.45,1.45-.65,2.18A.69.69,0,0,0,54.8,121.63Z"/><path class="cls-3" d="M55,140.12a3.67,3.67,0,0,0,.51-.34c.74-.7,1.47-1.41,2.2-2.12.5-.49.55-.92.16-1.3s-.76-.31-1.25.16c-.71.67-1.42,1.35-2.12,2a1.74,1.74,0,0,0-.38.52C54,139.58,54.34,140.12,55,140.12Z"/><path class="cls-3" d="M35.21,118.07a3.24,3.24,0,0,0-.21-.44c-.39-.68-.79-1.34-1.18-2-.17-.29-.3-.6-.49-.89a.69.69,0,0,0-.88-.29.74.74,0,0,0-.51.79,1.27,1.27,0,0,0,.16.51c.5.91,1,1.81,1.54,2.7a1.3,1.3,0,0,0,.42.42A.79.79,0,0,0,35.21,118.07Z"/><path class="cls-3" d="M65.29,121.25a.73.73,0,0,0-.4-.69l-3-1.58a1,1,0,0,0-.35-.08.74.74,0,0,0-.82.86.83.83,0,0,0,.52.67l2.7,1.43a1.32,1.32,0,0,0,.39.15A.75.75,0,0,0,65.29,121.25Z"/><path class="cls-3" d="M88.62,88.31c-.06-.23-.14-.57-.23-.92-.19-.75-.36-1.51-.58-2.26a.75.75,0,0,0-1-.58.73.73,0,0,0-.54.93c.25,1.09.52,2.17.82,3.24a.73.73,0,0,0,.87.55C88.39,89.2,88.62,88.89,88.62,88.31Z"/><path class="cls-3" d="M80.13,62.24c.26,0,.62-.07,1-.09s.72,0,1.08,0,.56-.05.83-.09a.78.78,0,0,0,.21-1.5,1.74,1.74,0,0,0-.64-.08l-2.62.2c-.66,0-1,.35-1,.85S79.36,62.26,80.13,62.24Z"/><path class="cls-3" d="M74.85,57.47c.09.85.17,1.64.25,2.43,0,.2.05.4.09.6a.84.84,0,0,0,.88.78.86.86,0,0,0,.73-1c-.1-1-.21-1.91-.32-2.86a.82.82,0,1,0-1.63,0Z"/><path class="cls-3" d="M66.92,95.6c-.18,0-.42,0-.65,0a.73.73,0,0,0-.7.81.78.78,0,0,0,.77.78c.89.08,1.79.13,2.69.15a.72.72,0,0,0,.74-.88.8.8,0,0,0-.82-.72Z"/><path class="cls-3" d="M21.73,88.83c-.28-1.09-.55-2.2-.87-3.29a.71.71,0,0,0-1.34.29,3.34,3.34,0,0,0,.12.77c.2.83.4,1.67.63,2.49a.71.71,0,0,0,.82.54A.81.81,0,0,0,21.73,88.83Z"/><path class="cls-3" d="M39,87.85c.09.73.18,1.56.31,2.39a.78.78,0,0,0,.87.73.75.75,0,0,0,.7-.88c0-.53-.11-1.07-.18-1.6a9.51,9.51,0,0,0-.19-1.19.77.77,0,0,0-1.51.14C39,87.54,39,87.64,39,87.85Z"/><path class="cls-3" d="M75.24,100.72v0c.14,0,.28,0,.42,0,.56,0,.93-.37.91-.82s-.36-.74-.9-.77L73.81,99a.77.77,0,0,0-.87,1,.81.81,0,0,0,.74.6C74.2,100.63,74.72,100.67,75.24,100.72Z"/><path class="cls-3" d="M61.44,32.53a.79.79,0,0,0-.45-.67c-.54-.26-1.08-.51-1.64-.73a.81.81,0,0,0-.72,1.45,15.18,15.18,0,0,0,1.8.8A.81.81,0,0,0,61.44,32.53Z"/><path class="cls-3" d="M56.74,33.13a.86.86,0,0,0-.56-.84.77.77,0,0,0-1,.39c-.27.52-.5,1-.72,1.58a.82.82,0,1,0,1.49.68c.23-.48.44-1,.66-1.47A3,3,0,0,0,56.74,33.13Z"/><path class="cls-3" d="M55.55,29.91a.76.76,0,0,0-.44-.67c-.56-.27-1.12-.53-1.69-.76a.81.81,0,0,0-.7,1.46,13.1,13.1,0,0,0,1.8.79A.8.8,0,0,0,55.55,29.91Z"/><path class="cls-3" d="M57.87,29.57a.69.69,0,0,0,.68-.4c.28-.57.54-1.15.77-1.75a.8.8,0,0,0-1.46-.64,12.27,12.27,0,0,0-.77,1.74A.77.77,0,0,0,57.87,29.57Z"/><path class="cls-3" d="M44.19,103.6c-.6,0-1,.23-1.06.66a.8.8,0,0,0,.61.9c.44.11.9.19,1.35.27a.8.8,0,1,0,.37-1.56C45,103.74,44.53,103.67,44.19,103.6Z"/><path class="cls-3" d="M69.66,118a.7.7,0,0,0-.45-.65c-.45-.21-.91-.41-1.37-.59a.8.8,0,0,0-.66,1.46,11.34,11.34,0,0,0,1.48.63C69.2,119,69.67,118.59,69.66,118Z"/><path class="cls-3" d="M36.53,111.08a.75.75,0,0,0-.78.86.82.82,0,1,0,1.63.07A.84.84,0,0,0,36.53,111.08Z"/><path class="cls-1" d="M30.25,80.13a37.31,37.31,0,0,1-7.38-.81,24.69,24.69,0,0,1-9.23-3.91,16.75,16.75,0,0,1-6.9-10.68A10.22,10.22,0,0,1,7.1,59a8.32,8.32,0,0,1,6-5.31,8.43,8.43,0,0,1,9.48,3.74,8.1,8.1,0,0,1,.78,7.1,11.47,11.47,0,0,1-1.95,3.5l-.16.18a.81.81,0,0,1-1,.11A.85.85,0,0,1,20,67.28a4.48,4.48,0,0,1,.32-.44A8.91,8.91,0,0,0,22.09,63a6.31,6.31,0,0,0-1-4.92,6.6,6.6,0,0,0-5.93-3A7,7,0,0,0,8.24,61a9.92,9.92,0,0,0,.26,4.23,15.46,15.46,0,0,0,7.31,9.58A25.06,25.06,0,0,0,24.44,78a31.67,31.67,0,0,0,5.13.54c1.24,0,2.48-.1,3.71-.15a2.58,2.58,0,0,1,.48,0,.74.74,0,0,1,.68.72.75.75,0,0,1-.59.85,4.45,4.45,0,0,1-.72.1Z"/><path class="cls-5" d="M39.61,29.17A20.19,20.19,0,0,1,38,37.36a17.2,17.2,0,0,1-8.89,9,9.52,9.52,0,0,1-4.15.83A8.6,8.6,0,0,1,18.33,44a7.87,7.87,0,0,1-1.91-5.49,8.64,8.64,0,0,1,3.15-6.37A9,9,0,0,1,25.25,30a13.35,13.35,0,0,1,3.28.27,3.59,3.59,0,0,1,.47.12.83.83,0,0,1,.54.95.81.81,0,0,1-.93.57c-.75-.11-1.5-.28-2.25-.33-4-.27-7.59,2.08-8.28,6.23a6.33,6.33,0,0,0,2.19,5.93,7.16,7.16,0,0,0,7.11,1.59,12.46,12.46,0,0,0,4.87-2.77,16.37,16.37,0,0,0,5.6-10.7,25.23,25.23,0,0,0-.79-9.51,29.61,29.61,0,0,0-2.34-6.16,2.71,2.71,0,0,1-.25-.67.71.71,0,0,1,.45-.82.75.75,0,0,1,.95.28,5.29,5.29,0,0,1,.4.74,34.12,34.12,0,0,1,2.9,8.81c.11.61.2,1.23.25,1.84C39.5,27.29,39.55,28.23,39.61,29.17Z"/><path class="cls-5" d="M41.85,97.69a16.81,16.81,0,0,1,10.28,3.5,9.89,9.89,0,0,1,3.39,4.21A8.46,8.46,0,0,1,54,114.49a7.85,7.85,0,0,1-5.31,2.88,8.23,8.23,0,0,1-8.8-5,10.42,10.42,0,0,1-.87-3.72,3.84,3.84,0,0,1,0-.48.7.7,0,0,1,.73-.72.71.71,0,0,1,.77.68c.09.61.14,1.23.26,1.84a7.5,7.5,0,0,0,1.95,3.85,6.86,6.86,0,0,0,10.08-.4,7.45,7.45,0,0,0,1.82-4.23,6.58,6.58,0,0,0-.93-4,10.78,10.78,0,0,0-4.17-3.9,15.14,15.14,0,0,0-8.78-1.95,21.68,21.68,0,0,0-7.87,2.2,31.6,31.6,0,0,0-9.53,7,3.64,3.64,0,0,1-.34.34.72.72,0,0,1-1.07.06.84.84,0,0,1,0-1.14c.32-.39.67-.75,1-1.1a34.75,34.75,0,0,1,8.59-6.31A25,25,0,0,1,39,97.93C39.92,97.78,40.89,97.77,41.85,97.69Z"/><path class="cls-1" d="M89,49.62a7.09,7.09,0,0,1-6.12,7.11,7.5,7.5,0,0,1-7.55-3.3,13,13,0,0,1-2.32-6,15.93,15.93,0,0,1,3-11.62,25.65,25.65,0,0,1,9.34-8.12,1.57,1.57,0,0,1,.51-.19.76.76,0,0,1,.92.48.79.79,0,0,1-.33,1,4.45,4.45,0,0,1-.48.26A23.54,23.54,0,0,0,76.6,38a14,14,0,0,0-2,8,12,12,0,0,0,2.14,6.41A6.12,6.12,0,0,0,80.12,55,5.41,5.41,0,0,0,86,53.27,5.48,5.48,0,0,0,86.7,47a6.58,6.58,0,0,0-3.24-3.09c-.42-.21-.86-.35-1.27-.55a.8.8,0,0,1-.43-1,.81.81,0,0,1,1-.51c2.89,1,5.08,2.79,5.94,5.86A15.85,15.85,0,0,1,89,49.62Z"/><path class="cls-5" d="M85,75.71A28.92,28.92,0,0,1,95.87,78c.34.14.66.3.72.73a.79.79,0,0,1-1,.91l-.28-.11a26.8,26.8,0,0,0-8.11-2.05,19.07,19.07,0,0,0-7.84.76A12.31,12.31,0,0,0,72,84.33a8.59,8.59,0,0,0-.81,2.24,5.67,5.67,0,0,0,3.63,6.5,5.56,5.56,0,0,0,7.55-4.21A6.92,6.92,0,0,0,82,85.49a4.22,4.22,0,0,1-.21-.69.78.78,0,0,1,1.49-.47A8.24,8.24,0,0,1,84,86.87a7.08,7.08,0,0,1-1.81,5.94,7.27,7.27,0,0,1-10.24.36,7,7,0,0,1-2.16-7.58,12.93,12.93,0,0,1,5.88-7.48,15.26,15.26,0,0,1,6.66-2.22C83.21,75.8,84.11,75.77,85,75.71Z"/><path class="cls-6" d="M84.54,64.88a.79.79,0,0,1,.83,1.2c-.4.88-.85,1.73-1.27,2.59-.66,1.32-1.35,2.63-2,4-.43.92-1.17,1-1.77.1-1.25-2-2.58-3.9-3.88-5.85l-.09-.15c-.46-.75-.16-1.34.72-1.41L81,65.09Zm-3.4,6a20.14,20.14,0,0,0,2-4.27c-1.56,0-3.11.12-4.68.29A25.9,25.9,0,0,0,81.14,70.84Z"/><path class="cls-5" d="M67.37,29.71a4.24,4.24,0,1,1,0-8.47,4.24,4.24,0,0,1,0,8.47Zm0-6.89a2.68,2.68,0,0,0,0,5.35,2.68,2.68,0,1,0,0-5.35Z"/><path class="cls-7" d="M21.74,99.8c.15-2.27.3-4.63.46-7,.06-.81.67-1.1,1.36-.64,1.67,1.1,3.33,2.22,5,3.34a9.59,9.59,0,0,0,.85.56c1,.52.79,1.33-.09,1.72-1.21.54-2.38,1.16-3.57,1.74-.88.43-1.78.82-2.63,1.31S21.55,100.81,21.74,99.8Zm6-3-1.42-1c-.44-.3-.88-.61-1.34-.9a6,6,0,0,0-1.37-.81c-.08,1.62-.26,3.16-.29,4.84Z"/><path class="cls-8" d="M15.2,65.73A3.69,3.69,0,1,1,18.88,62,3.66,3.66,0,0,1,15.2,65.73Zm0-1.6a2.09,2.09,0,1,0,0-4.17A2.1,2.1,0,0,0,13.11,62,2.06,2.06,0,0,0,15.19,64.13Z"/><path class="cls-4" d="M70.37,103.63a3.42,3.42,0,1,1-3.4-3.46A3.39,3.39,0,0,1,70.37,103.63Zm-1.64,0a1.78,1.78,0,1,0-1.82,1.77A1.8,1.8,0,0,0,68.73,103.63Z"/><path class="cls-9" d="M43.21,92.71a21.48,21.48,0,0,1,6.42,1.57,26.14,26.14,0,0,1,7.12,4.18,2.38,2.38,0,0,1,.42.42.71.71,0,0,1-.06,1,.76.76,0,0,1-.94.15,3.19,3.19,0,0,1-.43-.32,24.84,24.84,0,0,0-11.6-5.3c-.53-.09-1.08-.1-1.61-.18A.74.74,0,0,1,42,93.06a1,1,0,0,1,.52-.34A3.55,3.55,0,0,1,43.21,92.71Z"/><path class="cls-3" d="M36.36,88.34a3.3,3.3,0,1,1-6.59,0,3.3,3.3,0,1,1,6.59,0Zm-1.64,0a1.63,1.63,0,0,0-1.67-1.69,1.69,1.69,0,0,0-1.64,1.66A1.67,1.67,0,0,0,33.06,90,1.63,1.63,0,0,0,34.72,88.37Z"/><path class="cls-1" d="M93.48,70.49a3.23,3.23,0,1,1-3.27-3.21A3.17,3.17,0,0,1,93.48,70.49Zm-1.63,0a1.58,1.58,0,0,0-1.54-1.59,1.58,1.58,0,1,0-.1,3.15A1.57,1.57,0,0,0,91.85,70.53Z"/><path class="cls-8" d="M45.14,26.61a3.18,3.18,0,0,1,3.19,3.2,3.22,3.22,0,1,1-6.43,0A3.18,3.18,0,0,1,45.14,26.61ZM43.52,29.8a1.61,1.61,0,0,0,1.59,1.62,1.63,1.63,0,0,0,1.6-1.61,1.59,1.59,0,0,0-1.57-1.58A1.57,1.57,0,0,0,43.52,29.8Z"/><path class="cls-10" d="M24.72,38.86l-2-.9a3,3,0,0,1-.48-.23.81.81,0,0,1-.33-1,.78.78,0,0,1,.94-.45,6.85,6.85,0,0,1,.94.38c.52.21,1,.44,1.6.68.12-.21.24-.39.33-.58.22-.5.43-1,.64-1.49.05-.11.09-.22.15-.33a.83.83,0,0,1,1.05-.46.81.81,0,0,1,.42,1.11c-.22.56-.47,1.1-.71,1.65-.1.24-.18.48-.29.77.27.13.5.25.73.35.55.25,1.11.47,1.65.73a.81.81,0,1,1-.63,1.48c-.62-.24-1.21-.52-1.82-.78-.18-.08-.37-.14-.6-.23-.12.25-.23.45-.33.67-.24.55-.47,1.1-.72,1.65a.83.83,0,0,1-1.13.5.8.8,0,0,1-.37-1.12c.22-.55.48-1.1.71-1.65C24.53,39.39,24.61,39.16,24.72,38.86Z"/><path class="cls-11" d="M49.06,108.43l1.16.27c.39.09.78.16,1.17.26a.81.81,0,0,1,.66,1,.82.82,0,0,1-1,.6c-.61-.11-1.21-.26-1.82-.38a4,4,0,0,0-.46-.06c-.06.2-.13.38-.17.57-.13.57-.24,1.14-.37,1.7a.81.81,0,1,1-1.58-.32c.1-.57.24-1.13.36-1.7s.13-.63-.47-.77L45,109.25l-.29-.07a.8.8,0,0,1-.6-.91.77.77,0,0,1,.88-.64c.53.06,1.06.19,1.59.29l.81.16a3.14,3.14,0,0,0,.18-.44c.13-.56.23-1.13.37-1.7a1.85,1.85,0,0,1,.31-.63.7.7,0,0,1,.83-.16.64.64,0,0,1,.47.63,7.65,7.65,0,0,1-.15,1.07C49.3,107.34,49.19,107.82,49.06,108.43Z"/><path class="cls-3" d="M81.92,50c-.1.56-.19,1-.27,1.51a4.89,4.89,0,0,1-.14.64.76.76,0,0,1-.87.56A.71.71,0,0,1,80,52a11.41,11.41,0,0,1,.15-1.31c0-.14.06-.28.08-.41.07-.48,0-.56-.47-.64s-1-.16-1.47-.26a.78.78,0,0,1-.69-1,.77.77,0,0,1,.93-.64c.57.07,1.14.18,1.72.27h.32c.09-.49.19-1,.29-1.49a4.69,4.69,0,0,1,.14-.65.78.78,0,0,1,.89-.53.71.71,0,0,1,.62.77c0,.48-.12,1-.18,1.43,0,.12-.06.23-.07.35,0,.38,0,.46.39.54s1,.17,1.53.27a.78.78,0,0,1,.73.81.73.73,0,0,1-.79.78,9.71,9.71,0,0,1-1.19-.16Z"/><path class="cls-10" d="M34.87,28.05a21.69,21.69,0,0,1-1.43,8.1,3.7,3.7,0,0,1-.29.6.74.74,0,0,1-.95.28.79.79,0,0,1-.48-.93,2.35,2.35,0,0,1,.17-.44,18.24,18.24,0,0,0,1.26-5.29,19.89,19.89,0,0,0,0-3.78,1.09,1.09,0,0,1,0-.18.83.83,0,0,1,.76-.85.79.79,0,0,1,.84.76C34.81,27,34.84,27.67,34.87,28.05Z"/><path class="cls-9" d="M26.94,60.94a21.19,21.19,0,0,0,.48,4.7,2.49,2.49,0,0,1,0,.47.93.93,0,0,1-.8.92.92.92,0,0,1-1-.61,11.4,11.4,0,0,1-.28-1.29,26.72,26.72,0,0,1-.35-5.79,1,1,0,0,1,.73-1,.94.94,0,0,1,1.15,1C27,59.86,26.94,60.4,26.94,60.94Z"/><path class="cls-3" d="M77.6,45.29a.78.78,0,0,1-.78-1,22.86,22.86,0,0,1,.64-2.43,18.18,18.18,0,0,1,2.8-5.13,2.09,2.09,0,0,1,.22-.28.78.78,0,0,1,1.27.89,3.3,3.3,0,0,1-.34.49,16,16,0,0,0-3,6.71C78.29,45,78,45.28,77.6,45.29Z"/><path class="cls-12" d="M15.27,45.81a1,1,0,0,1-.68,1,.9.9,0,0,1-1-.4A7,7,0,0,1,13,45.28a30.94,30.94,0,0,1-1.57-5.59.92.92,0,1,1,1.8-.4c.22.85.4,1.71.62,2.57a15.46,15.46,0,0,0,1.28,3.54A2.08,2.08,0,0,1,15.27,45.81Z"/><path class="cls-9" d="M72.09,32a2.66,2.66,0,0,1,.24-.53,16.68,16.68,0,0,1,5.91-5.41,1.4,1.4,0,0,1,.56-.17.72.72,0,0,1,.7.47.73.73,0,0,1-.16.83,1.36,1.36,0,0,1-.39.27,15.16,15.16,0,0,0-5,4.48,8.38,8.38,0,0,1-.52.66.68.68,0,0,1-.82.17A.86.86,0,0,1,72.09,32Z"/><path class="cls-13" d="M91.13,42.57c0,.42-.18.66-.47.77a.82.82,0,0,1-.9-.11,4.79,4.79,0,0,1-.36-.41l-4.2-5.24a2.77,2.77,0,0,1-.31-.45.8.8,0,0,1,.26-1,.77.77,0,0,1,.94,0,2.81,2.81,0,0,1,.38.39c1.43,1.78,2.86,3.56,4.27,5.34A4.22,4.22,0,0,1,91.13,42.57Z"/><path class="cls-14" d="M86.05,101.11a.93.93,0,0,1-.94-1.26,3.07,3.07,0,0,1,.24-.48l2.46-4.47a3.42,3.42,0,0,1,.23-.42.93.93,0,0,1,1.12-.32.88.88,0,0,1,.55,1,1.6,1.6,0,0,1-.18.56l-2.62,4.79A1,1,0,0,1,86.05,101.11Z"/><path class="cls-3" d="M16.26,69.15a1.92,1.92,0,0,1,.47.29A21.39,21.39,0,0,0,22,73.25a1.31,1.31,0,0,1,.38.27.76.76,0,0,1,.14.89.73.73,0,0,1-.77.46,1.93,1.93,0,0,1-.56-.18,23.23,23.23,0,0,1-5.37-3.8,3,3,0,0,1-.47-.54C15,69.78,15.44,69.13,16.26,69.15Z"/><path class="cls-1" d="M70.69,16.21a2.23,2.23,0,0,1,.45.14c1.67.86,3.33,1.72,5,2.61a1.17,1.17,0,0,1,.48.57.83.83,0,0,1-.74,1.15,2.1,2.1,0,0,1-.85-.22q-2.3-1.17-4.57-2.37a2,2,0,0,1-.57-.41.81.81,0,0,1-.08-1A1,1,0,0,1,70.69,16.21Z"/><path class="cls-1" d="M50.91,14.09H48.39a3.85,3.85,0,0,1-.48,0,.81.81,0,0,1-.73-.75.88.88,0,0,1,.58-1,2.39,2.39,0,0,1,.65-.11c1.78,0,3.56,0,5.33,0a.9.9,0,0,1,1,.88.88.88,0,0,1-1,1H50.91Z"/><path class="cls-1" d="M59.91,12.9c.5.1,1.21.22,1.91.39,1.09.26,2.17.55,3.25.83a2.64,2.64,0,0,1,.4.12A.93.93,0,1,1,64.92,16l-3.61-.92c-.6-.14-1.22-.23-1.82-.37a.86.86,0,0,1-.79-1C58.72,13.19,59.08,12.88,59.91,12.9Z"/><path class="cls-11" d="M24.42,22.07a1.07,1.07,0,0,1-.53.89c-.78.6-1.55,1.19-2.32,1.81-.53.43-1,.89-1.54,1.33a1,1,0,0,1-1.05.25.94.94,0,0,1-.43-1.44,2.34,2.34,0,0,1,.38-.39q1.86-1.51,3.73-3a1.7,1.7,0,0,1,.46-.29A.93.93,0,0,1,24.42,22.07Z"/><path class="cls-11" d="M12.14,34.49a.92.92,0,0,1-.81-1.19,1.74,1.74,0,0,1,.24-.47c1-1.33,2.07-2.65,3.1-4a1,1,0,0,1,.92-.48.92.92,0,0,1,.81,1.29,1.65,1.65,0,0,1-.22.36Q14.61,32,13,34A1,1,0,0,1,12.14,34.49Z"/><path class="cls-4" d="M62,19.71a.75.75,0,0,1-.43.73,1.62,1.62,0,0,1-.28.11,12.33,12.33,0,0,0-4.86,2.76,3.2,3.2,0,0,1-.42.33.76.76,0,0,1-1-.13.81.81,0,0,1-.11-1,1.18,1.18,0,0,1,.23-.27A13.67,13.67,0,0,1,60.66,19a1.9,1.9,0,0,1,.53-.09A.73.73,0,0,1,62,19.71Z"/><path class="cls-9" d="M79.35,110.77a.8.8,0,0,1-.78.87,2.2,2.2,0,0,1-.7-.15c-1.82-.59-3.63-1.2-5.45-1.8a2.24,2.24,0,0,1-.55-.24.8.8,0,0,1,.48-1.47,1.24,1.24,0,0,1,.41.08L78.61,110A.93.93,0,0,1,79.35,110.77Z"/><path class="cls-9" d="M50.05,131.83c.06-.62.1-1.24.17-1.85a.7.7,0,0,1,.67-.72.69.69,0,0,1,.84.71,8.7,8.7,0,0,1,0,1,12.68,12.68,0,0,0,.72,5.18,3,3,0,0,1,.11.4.78.78,0,0,1-.45.89.8.8,0,0,1-1-.36,2.71,2.71,0,0,1-.17-.39A16.16,16.16,0,0,1,50.05,131.83Z"/><path class="cls-15" d="M96.81,43.86a.94.94,0,0,1-.63,1,.88.88,0,0,1-1.05-.49c-.22-.45-.37-.93-.57-1.39-.48-1.08-1-2.15-1.46-3.22a2.66,2.66,0,0,1-.16-.39.91.91,0,0,1,.45-1.07.93.93,0,0,1,1.13.26,2,2,0,0,1,.27.47c.62,1.4,1.25,2.81,1.86,4.22A4.07,4.07,0,0,1,96.81,43.86Z"/><path class="cls-15" d="M99.42,54.15a1,1,0,0,1-.85,1.11,1,1,0,0,1-1-.88c-.16-1-.31-2-.5-3-.12-.67-.31-1.32-.44-2a.9.9,0,0,1,1.12-1.11.94.94,0,0,1,.69.82c.21,1,.42,2,.62,3C99.22,52.8,99.32,53.54,99.42,54.15Z"/><path class="cls-15" d="M99.84,61.57l-.18,3.23a2.07,2.07,0,0,1-.08.42.86.86,0,0,1-1,.64.82.82,0,0,1-.74-.86c0-.78.09-1.56.12-2.34s.06-1.6.08-2.4c0-.24,0-.48,0-.72a.8.8,0,0,1,.86-.74.78.78,0,0,1,.88.72c0,.68,0,1.36,0,2Z"/><path class="cls-9" d="M45.85,23.1a17.55,17.55,0,0,1,4.37.74c.13,0,.27.07.4.12a.84.84,0,0,1,.56,1,.85.85,0,0,1-1.06.52c-1.09-.23-2.18-.5-3.28-.68a18.62,18.62,0,0,0-2-.12,2.41,2.41,0,0,1-.53-.07.78.78,0,0,1-.58-.81.75.75,0,0,1,.67-.73A13.52,13.52,0,0,1,45.85,23.1Z"/><path class="cls-2" d="M2.8,60.73c.05-1,.1-2,.16-3.06a1,1,0,0,1,.93-1,.94.94,0,0,1,.92,1c0,1.6-.06,3.2-.1,4.8a.9.9,0,0,1-.78.92.94.94,0,0,1-1-.74,4.52,4.52,0,0,1-.06-.53,1.09,1.09,0,0,1,0-.18V60.73Z"/><path class="cls-2" d="M3.42,67.76c0-.86.29-1.26.81-1.33a1,1,0,0,1,1,.84c.31,1.5.6,3,.9,4.52a1.36,1.36,0,0,1,0,.29.9.9,0,0,1-1.76.34c-.17-.57-.3-1.15-.42-1.74C3.77,69.62,3.58,68.56,3.42,67.76Z"/><path class="cls-16" d="M18.77,81.35a2.16,2.16,0,0,1-.24.49c-1.17,1.45-2.34,2.89-3.53,4.33a.81.81,0,0,1-1.21.16.93.93,0,0,1,0-1.25c1-1.15,1.91-2.32,2.86-3.48.25-.31.49-.63.77-.92a.83.83,0,0,1,.94-.16A.84.84,0,0,1,18.77,81.35Z"/><path class="cls-13" d="M94.06,59.11c-.51-.09-1-.18-1.45-.25A10.59,10.59,0,0,0,89,59a3,3,0,0,1-.66.09.68.68,0,0,1-.72-.51.79.79,0,0,1,.35-.94,1.11,1.11,0,0,1,.27-.12,12.19,12.19,0,0,1,6,0,.8.8,0,0,1,.62.79A.84.84,0,0,1,94.06,59.11Z"/><path class="cls-16" d="M28.39,84.36l-3.07-.28-2-.21a2.91,2.91,0,0,1-.59-.1.74.74,0,0,1-.56-.92.7.7,0,0,1,.78-.58c.5,0,1,.07,1.5.12l4.23.45c.54.06.79.35.75.82a.71.71,0,0,1-.68.7C28.64,84.37,28.5,84.36,28.39,84.36Z"/><path class="cls-16" d="M9.1,84.36a.73.73,0,0,1-.8-.4.81.81,0,0,1,.14-.89,1.92,1.92,0,0,1,.43-.32,10.63,10.63,0,0,0,3.35-3.39,1.48,1.48,0,0,1,.22-.29.72.72,0,0,1,.87-.2.7.7,0,0,1,.43.78,1.62,1.62,0,0,1-.19.56,12.07,12.07,0,0,1-4.06,4A1.23,1.23,0,0,1,9.1,84.36Z"/><path class="cls-16" d="M17.06,88.12a.69.69,0,0,1,.73.58c.1.41.14.83.22,1.25a10,10,0,0,0,1.34,3.57,2,2,0,0,1,.26.66.71.71,0,0,1-.41.79.74.74,0,0,1-.88-.17,1.74,1.74,0,0,1-.29-.38,12.2,12.2,0,0,1-1.72-5.14,2.57,2.57,0,0,1,0-.48A.71.71,0,0,1,17.06,88.12Z"/><path class="cls-13" d="M91.52,64.15l-2.58-.08c-.58,0-.89-.33-.88-.84a.8.8,0,0,1,.88-.79c1.08,0,2.16.06,3.24.08.68,0,1.36,0,2,0a.81.81,0,1,1,0,1.62H91.52Z"/><path class="cls-17" d="M45.43,88.15l.38.12,3.44,1.22.28.1a.94.94,0,0,1,.56,1.17.9.9,0,0,1-1.14.61c-1.36-.45-2.72-.92-4.06-1.43a.93.93,0,0,1-.47-1.39A.94.94,0,0,1,45.43,88.15Z"/><path class="cls-2" d="M13.76,93.09a.86.86,0,0,1,.83.49c.68,1.25,1.35,2.5,2,3.76a.88.88,0,0,1-.3,1.25A.94.94,0,0,1,15,98.2c-.68-1.22-1.35-2.45-2-3.7A.91.91,0,0,1,13.76,93.09Z"/><path class="cls-18" d="M38.06,129.11a.82.82,0,0,1-.72-.44.68.68,0,0,1,.08-.83,1.71,1.71,0,0,1,.39-.37,25.29,25.29,0,0,1,4.13-2.54,2.28,2.28,0,0,1,.68-.18.67.67,0,0,1,.71.45.69.69,0,0,1-.18.82,1.51,1.51,0,0,1-.39.27,28.55,28.55,0,0,0-4,2.46A6.19,6.19,0,0,1,38.06,129.11Z"/><path class="cls-9" d="M21.69,52.16l-.44-.11a26,26,0,0,1-4.41-1.72,1.89,1.89,0,0,1-.5-.33.71.71,0,0,1-.18-.87.69.69,0,0,1,.79-.41,2.25,2.25,0,0,1,.62.2,24.75,24.75,0,0,0,4.31,1.66l.23.08a.77.77,0,0,1,.49,1C22.51,52,22.22,52.18,21.69,52.16Z"/><path class="cls-17" d="M61.1,88a1,1,0,0,1-.61,1,.88.88,0,0,1-1.07-.33c-.66-1.26-1.29-2.53-1.88-3.81A.87.87,0,0,1,58,83.62a.94.94,0,0,1,1.23.42c.61,1.17,1.18,2.36,1.76,3.55A2.64,2.64,0,0,1,61.1,88Z"/><path class="cls-13" d="M62.68,95a14.71,14.71,0,0,1-.53,3.37.93.93,0,0,1-1.21.76.86.86,0,0,1-.64-.84,2,2,0,0,1,.08-.59,14,14,0,0,0,.42-3.15,1.76,1.76,0,0,1,.11-.64.87.87,0,0,1,1-.52.84.84,0,0,1,.72.77,1.1,1.1,0,0,1,0,.18Z"/><path class="cls-19" d="M28.88,116.74a2.39,2.39,0,0,1,.65.42c.79.93,1.55,1.88,2.3,2.84a1,1,0,0,1-.1,1.36.91.91,0,0,1-1.37-.17c-.78-.94-1.54-1.9-2.29-2.86a.91.91,0,0,1-.12-1A1.11,1.11,0,0,1,28.88,116.74Z"/><path class="cls-20" d="M68.52,80.34a1,1,0,0,1-.79-.48,1,1,0,0,1,0-1,2.13,2.13,0,0,1,.29-.31l2.21-2.35a2.68,2.68,0,0,1,.53-.48.94.94,0,0,1,1,.17A1,1,0,0,1,71.93,77a4.08,4.08,0,0,1-.52.66c-.71.75-1.41,1.51-2.15,2.24A3.25,3.25,0,0,1,68.52,80.34Z"/><path class="cls-20" d="M31.13,23.61a.78.78,0,0,1-.37.71l-1.08.76c-.83.59-1.66,1.18-2.52,1.74a1.29,1.29,0,0,1-.76.26.79.79,0,0,1-.46-1.27,1.79,1.79,0,0,1,.36-.31c1.13-.79,2.26-1.59,3.4-2.36a1.45,1.45,0,0,1,.72-.25A.68.68,0,0,1,31.13,23.61Z"/><path class="cls-15" d="M86.21,80.33c0,.48-.31.77-.85.82-.71.06-1.43.1-2.14.21-.51.07-1,.23-1.51.35-.1,0-.19.06-.29.09a.82.82,0,0,1-1.07-.5.8.8,0,0,1,.53-1.06,8.77,8.77,0,0,1,1.5-.41c.9-.14,1.82-.23,2.73-.32a1.35,1.35,0,0,1,.59.09A.77.77,0,0,1,86.21,80.33Z"/><path class="cls-13" d="M61.25,109.75c.81.06,1.59.1,2.36.17.58,0,.89.37.88.86a.73.73,0,0,1-.74.77c-.36,0-.72,0-1.08,0-.93,0-1.87,0-2.8,0-.2,0-.4,0-.6,0a.81.81,0,0,1-.74-.8.8.8,0,0,1,.73-.81C59.93,109.83,60.61,109.8,61.25,109.75Z"/><path class="cls-15" d="M94.56,82.39c0,.64-.45,1-1,.87a2.72,2.72,0,0,1-.44-.18l-3.35-1.27c-.13,0-.27-.07-.4-.12a.83.83,0,0,1-.46-1,.81.81,0,0,1,.93-.57,3.65,3.65,0,0,1,.8.22c1.12.43,2.23.88,3.33,1.32A.77.77,0,0,1,94.56,82.39Z"/><path class="cls-20" d="M43.18,83.73l.43.11,2.72.73c.13,0,.27.06.4.11a.93.93,0,0,1-.41,1.8c-1.18-.28-2.36-.6-3.52-1a.85.85,0,0,1-.6-1A1,1,0,0,1,43.18,83.73Z"/><path class="cls-9" d="M49.36,124c0-.73.07-1.47.1-2.21a.8.8,0,0,1,.51-.74.66.66,0,0,1,.82.16,1.33,1.33,0,0,1,.29.69,8.78,8.78,0,0,1,0,1L51,125.74a4.89,4.89,0,0,1,0,.54.87.87,0,0,1-.83.72.81.81,0,0,1-.78-.83c0-.72,0-1.44,0-2.16Z"/><path class="cls-15" d="M75.78,86.62a6.21,6.21,0,0,1,1.12-3.43,1,1,0,0,1,.43-.39.76.76,0,0,1,1.09.77,1.93,1.93,0,0,1-.27.71,4.5,4.5,0,0,0-.66,3.16.79.79,0,0,1-.59,1c-.51.1-.85-.14-1-.7a1.37,1.37,0,0,1-.08-.35C75.8,87.14,75.79,86.88,75.78,86.62Z"/><path class="cls-11" d="M33.55,107.62a2.09,2.09,0,0,1-.24.47,14.61,14.61,0,0,0-2.25,3.32.79.79,0,0,1-.82.48.73.73,0,0,1-.71-.75,1.58,1.58,0,0,1,.12-.52,14.28,14.28,0,0,1,2.46-3.6,1.1,1.1,0,0,1,.51-.3C33.07,106.61,33.53,107,33.55,107.62Z"/><path class="cls-11" d="M35.35,105.77a.73.73,0,0,1-.8-.61.75.75,0,0,1,.53-.94,14.34,14.34,0,0,1,1.69-.41c.78-.15,1.57-.25,2.36-.36a1.72,1.72,0,0,1,.6,0,.81.81,0,0,1,.66.81.79.79,0,0,1-.66.75,29.72,29.72,0,0,0-4.18.73A1.91,1.91,0,0,1,35.35,105.77Z"/><path class="cls-8" d="M66,33.55a1,1,0,0,1,.37.12c1.21.8,2.42,1.62,3.62,2.44a.8.8,0,0,1,.28.91.64.64,0,0,1-.65.53,1.57,1.57,0,0,1-.77-.26c-.77-.5-1.52-1-2.28-1.54-.36-.25-.73-.48-1.08-.75a.81.81,0,0,1-.31-1A.78.78,0,0,1,66,33.55Z"/><path class="cls-3" d="M26.59,73.81a.81.81,0,0,1-.44.87.76.76,0,0,1-.88-.15,1.49,1.49,0,0,1-.3-.44c-.59-1.14-1.16-2.28-1.74-3.42a3.31,3.31,0,0,1-.15-.33.82.82,0,0,1,.39-1,.79.79,0,0,1,1,.24,3.17,3.17,0,0,1,.27.47c.55,1.07,1.09,2.13,1.63,3.21C26.48,73.5,26.55,73.72,26.59,73.81Z"/><path class="cls-16" d="M27.58,90.55a.82.82,0,0,1-.5.86.77.77,0,0,1-.87-.24,2.06,2.06,0,0,1-.25-.4L24.3,87.51a4.25,4.25,0,0,1-.21-.49.8.8,0,0,1,.33-.94.86.86,0,0,1,1,.18,1.57,1.57,0,0,1,.18.31c.59,1.15,1.18,2.31,1.76,3.47A2.65,2.65,0,0,1,27.58,90.55Z"/><path class="cls-15" d="M84.52,96.83a1.59,1.59,0,0,1-.33.51,16.15,16.15,0,0,1-3.76,2.21.82.82,0,0,1-1-.13.7.7,0,0,1-.16-.78,1.06,1.06,0,0,1,.47-.51,23,23,0,0,0,3.46-2A.79.79,0,0,1,84.52,96.83Z"/><path class="cls-13" d="M91.75,48.81a2.41,2.41,0,0,1,.17-.6.73.73,0,0,1,.79-.29.75.75,0,0,1,.57.64c.09.53.17,1.06.24,1.6.12.85.23,1.7.35,2.55.08.64-.22,1-.78,1a.73.73,0,0,1-.78-.67C92.12,51.68,91.94,50.29,91.75,48.81Z"/><path class="cls-15" d="M66.84,91a.82.82,0,0,1-.58.88.78.78,0,0,1-.86-.39,2.62,2.62,0,0,1-.15-.39c-.36-1.23-.72-2.45-1.07-3.67a2.58,2.58,0,0,1-.09-.35.75.75,0,0,1,.43-.84.82.82,0,0,1,1,.31,2.18,2.18,0,0,1,.2.5c.35,1.2.7,2.41,1,3.61A3,3,0,0,1,66.84,91Z"/><path class="cls-11" d="M10.35,38.21a1.87,1.87,0,0,1-.11.36c-.43.89-.86,1.77-1.31,2.64a.87.87,0,0,1-1,.52.9.9,0,0,1-.74-1.25c.44-1,.94-1.95,1.46-2.9a.86.86,0,0,1,1.06-.34A1,1,0,0,1,10.35,38.21Z"/><path class="cls-14" d="M81.37,108.66a.91.91,0,0,1-.91-1.25,1.3,1.3,0,0,1,.14-.26c.49-.78,1-1.56,1.49-2.33a.94.94,0,0,1,1.71.79,9.85,9.85,0,0,1-.55.93c-.35.54-.69,1.08-1,1.61A.91.91,0,0,1,81.37,108.66Z"/><path class="cls-20" d="M30.41,76a.8.8,0,0,1-.74-.38c-.55-.89-1.11-1.77-1.61-2.68a.89.89,0,0,1,.38-1.24,1,1,0,0,1,1.29.39c.5.82,1,1.63,1.49,2.46A.92.92,0,0,1,30.41,76Z"/><path class="cls-14" d="M93.54,87.14a1.81,1.81,0,0,1-.1.32c-.38.88-.76,1.77-1.17,2.64a.91.91,0,0,1-1.28.51.89.89,0,0,1-.47-1.17c.39-1,.83-2,1.29-2.9a.88.88,0,0,1,1.1-.4A1,1,0,0,1,93.54,87.14Z"/><path class="cls-11" d="M31.61,17.9a.92.92,0,0,1-.5.72c-.87.46-1.73.92-2.61,1.36a.94.94,0,1,1-.9-1.66c.85-.48,1.72-.94,2.6-1.35A.94.94,0,0,1,31.61,17.9Z"/><path class="cls-9" d="M27.26,53.5a.86.86,0,0,1-.91-.9,2,2,0,0,1,.13-.64c.31-.8.64-1.59,1-2.39a1.57,1.57,0,0,1,.18-.31.9.9,0,0,1,1.16-.3.92.92,0,0,1,.5,1.1,2.09,2.09,0,0,1-.08.23c-.34.83-.68,1.66-1,2.5A.94.94,0,0,1,27.26,53.5Z"/><path class="cls-19" d="M24.82,111.35a.91.91,0,0,1,.77.39c.57.8,1.15,1.59,1.7,2.4a1,1,0,0,1-.17,1.35.94.94,0,0,1-1.37-.26c-.57-.77-1.12-1.56-1.67-2.34A1,1,0,0,1,24.82,111.35Z"/><path class="cls-19" d="M36.48,125.51c0,.9-.72,1.35-1.38,1a1.35,1.35,0,0,1-.32-.26l-1.86-2a1,1,0,0,1-.29-.82.91.91,0,0,1,1.38-.71,2.11,2.11,0,0,1,.36.31c.6.65,1.2,1.29,1.78,2A2.29,2.29,0,0,1,36.48,125.51Z"/><path class="cls-21" d="M77.19,115.16a.79.79,0,0,1-.11.35c-.63.87-1.25,1.76-1.94,2.58a.9.9,0,0,1-1.52-.32.88.88,0,0,1,.12-.86c.59-.82,1.2-1.64,1.83-2.44a.86.86,0,0,1,1.08-.27A.94.94,0,0,1,77.19,115.16Z"/><path class="cls-1" d="M39.5,15.5A.92.92,0,0,1,39,13.75a2.62,2.62,0,0,1,.56-.18c.74-.17,1.48-.34,2.22-.49a2.35,2.35,0,0,1,.59-.05.89.89,0,0,1,.85.71.94.94,0,0,1-.43,1,1.09,1.09,0,0,1-.34.13l-2.79.63A.83.83,0,0,1,39.5,15.5Z"/><path class="cls-20" d="M59.75,35.74a2.35,2.35,0,0,1,.37.1q1.26.49,2.49,1a1,1,0,0,1,.35,1.6.89.89,0,0,1-1,.17c-.39-.15-.77-.34-1.15-.5-.54-.22-1.09-.41-1.62-.64a.9.9,0,0,1-.48-1.29A.93.93,0,0,1,59.75,35.74Z"/><path class="cls-20" d="M51.31,87c-.5,0-1-.06-1.49-.11A.85.85,0,0,1,49,86a.93.93,0,0,1,.83-.94h3a.9.9,0,0,1,1,1,.85.85,0,0,1-.8.88C52.43,86.94,51.87,87,51.31,87Z"/><path class="cls-13" d="M71.91,113.87a.8.8,0,0,1-1.26.68,4.46,4.46,0,0,1-.42-.34,10.77,10.77,0,0,0-2.45-1.49.91.91,0,0,1-.67-.77.75.75,0,0,1,.81-.88,1.41,1.41,0,0,1,.46.11,12,12,0,0,1,3.14,2A.85.85,0,0,1,71.91,113.87Z"/><path class="cls-19" d="M51.24,143a2.58,2.58,0,0,1-.54-.26c-.73-.58-1.45-1.19-2.17-1.78a1,1,0,0,1-.39-.89.89.89,0,0,1,1.32-.72,2.14,2.14,0,0,1,.39.28c.62.5,1.24,1,1.85,1.52a1.81,1.81,0,0,1,.49.58A.94.94,0,0,1,51.24,143Z"/><path class="cls-21" d="M70.51,123.7a2.2,2.2,0,0,1-.26.56c-.6.73-1.21,1.45-1.84,2.15a.89.89,0,0,1-1.33.15.94.94,0,0,1-.08-1.34c.62-.76,1.26-1.51,1.9-2.25a.91.91,0,0,1,1-.26A1,1,0,0,1,70.51,123.7Z"/><path class="cls-9" d="M70.55,42.92a1.05,1.05,0,0,1-.51.84.94.94,0,0,1-1,0,2,2,0,0,1-.32-.26l-1.81-1.67c-.56-.5-.66-1-.28-1.46s.94-.43,1.49,0,1.31,1.17,1.94,1.78A3.69,3.69,0,0,1,70.55,42.92Z"/><path class="cls-1" d="M80.66,22.16a1.84,1.84,0,0,1,.51.24c.75.59,1.49,1.21,2.22,1.83a.93.93,0,0,1,.27,1.09.73.73,0,0,1-.71.55,1.17,1.17,0,0,1-.72-.2c-.79-.61-1.56-1.25-2.32-1.9a1,1,0,0,1-.22-1.11A1,1,0,0,1,80.66,22.16Z"/><path class="cls-20" d="M37.48,80.92a2.21,2.21,0,0,1,.46.18c.78.44,1.55.9,2.33,1.35a1,1,0,0,1,.54.75.87.87,0,0,1-1.22,1,31.12,31.12,0,0,1-2.85-1.66.8.8,0,0,1-.26-1A.91.91,0,0,1,37.48,80.92Z"/><path class="cls-2" d="M6.64,75.92a.94.94,0,0,1,.81.59c.33,1,.67,1.92,1,2.9a.92.92,0,0,1-.62,1.19A.91.91,0,0,1,6.66,80c-.33-.9-.64-1.8-.91-2.72A1,1,0,0,1,6.64,75.92Z"/><path class="cls-20" d="M65.26,80.93a.91.91,0,0,1,.94.55.83.83,0,0,1-.23,1,11.69,11.69,0,0,1-1.19.79,15.09,15.09,0,0,1-1.63.88.88.88,0,0,1-1.25-1,1,1,0,0,1,.42-.61c.83-.52,1.68-1,2.53-1.48A1.41,1.41,0,0,1,65.26,80.93Z"/><path class="cls-19" d="M43.92,134.49a.92.92,0,0,1-1.38.83,2,2,0,0,1-.32-.27l-1.83-1.88a1.75,1.75,0,0,1-.28-.39.86.86,0,0,1,.21-1.09.87.87,0,0,1,1.1-.1,2,2,0,0,1,.32.27l1.82,1.9A1,1,0,0,1,43.92,134.49Z"/><path class="cls-2" d="M5.86,49.81C5.67,51,5.51,52,5.31,53a.9.9,0,0,1-1.77-.25c0-.53.12-1.06.2-1.59a14,14,0,0,1,.31-1.59.88.88,0,0,1,1.51-.4A2.19,2.19,0,0,1,5.86,49.81Z"/><path class="cls-2" d="M10.59,86.48a.83.83,0,0,1,.82.51c.44.9.87,1.8,1.27,2.72a.9.9,0,0,1-.45,1.21A.92.92,0,0,1,11,90.43c-.43-.88-.85-1.76-1.22-2.67A.88.88,0,0,1,10.59,86.48Z"/><path class="cls-2" d="M20.44,104.08a.92.92,0,0,1-.5.86.88.88,0,0,1-1-.07.75.75,0,0,1-.25-.25c-.5-.82-1-1.65-1.48-2.47a1.11,1.11,0,0,1-.13-.4.87.87,0,0,1,.56-1,.83.83,0,0,1,1,.35c.42.64.8,1.3,1.19,2a4.77,4.77,0,0,1,.36.62C20.35,103.81,20.4,104,20.44,104.08Z"/><path class="cls-9" d="M75.66,70.42a2.06,2.06,0,0,1-.1.5c-.44.92-.87,1.85-1.36,2.73a.87.87,0,0,1-1.5.1,1,1,0,0,1,0-1c.4-.84.81-1.69,1.25-2.52a.9.9,0,0,1,1.44-.32A2.07,2.07,0,0,1,75.66,70.42Z"/><path class="cls-15" d="M92,34.38c0,.57-.19.85-.56,1a.83.83,0,0,1-.94-.19,2,2,0,0,1-.23-.27c-.51-.72-1-1.43-1.5-2.16a1.53,1.53,0,0,1-.23-.66.77.77,0,0,1,.5-.81.84.84,0,0,1,.95.13,1.2,1.2,0,0,1,.24.26c.52.73,1,1.46,1.55,2.2A2.55,2.55,0,0,1,92,34.38Z"/><path class="cls-20" d="M40.58,38.59a.87.87,0,0,1-1-.61.89.89,0,0,1,.28-1,2.22,2.22,0,0,1,.37-.21c.79-.32,1.58-.65,2.38-1a1.76,1.76,0,0,1,.64-.11.87.87,0,0,1,.46,1.6,2.11,2.11,0,0,1-.43.2l-2.22.9A5.23,5.23,0,0,1,40.58,38.59Z"/><path class="cls-15" d="M98.83,70.48c-.12.57-.26,1.27-.4,2-.07.3-.13.59-.22.87a1,1,0,0,1-1.1.78,1,1,0,0,1-.66-1.22c.18-.86.36-1.71.55-2.57a2.07,2.07,0,0,1,.13-.4.85.85,0,0,1,1-.5C98.58,69.5,98.84,69.85,98.83,70.48Z"/><path class="cls-13" d="M61,106c0,.58-.3,1-.74,1a.83.83,0,0,1-.85-.83c-.09-1.13-.17-2.27-.25-3.4a1.93,1.93,0,0,1,0-.48.78.78,0,0,1,.7-.7.8.8,0,0,1,.79.61,1.1,1.1,0,0,1,0,.18C60.73,103.54,60.84,104.77,61,106Z"/><path class="cls-12" d="M9.23,52.52a.8.8,0,0,1-.89-.46.76.76,0,0,1,.15-.88A.88.88,0,0,1,8.77,51c1-.58,1.9-1.16,2.87-1.72a.82.82,0,0,1,1.3.52.86.86,0,0,1-.5.93c-.93.55-1.85,1.11-2.78,1.65A2.69,2.69,0,0,1,9.23,52.52Z"/><path class="cls-20" d="M50.12,34.4c.42,0,.84,0,1.26,0a.8.8,0,0,1,.84.88.85.85,0,0,1-.86.89c-.94,0-1.87.11-2.81.14a1.49,1.49,0,0,1-.69-.13.88.88,0,0,1,.36-1.62l1.9-.19Z"/><path class="cls-4" d="M45.93,19.92l-3.17-.19c-.6-.05-.89-.35-.86-.85a.83.83,0,0,1,1-.76l3.35.2c.56,0,.84.33.82.83s-.32.76-.87.79h-.24Z"/><path class="cls-22" d="M39.26,119.17a3.21,3.21,0,0,1-.61-.32,8.06,8.06,0,0,1-2-3.13.8.8,0,0,1,.42-1,.77.77,0,0,1,1.06.39,8.43,8.43,0,0,0,1.76,2.68.78.78,0,0,1,.15.89A.88.88,0,0,1,39.26,119.17Z"/><path class="cls-22" d="M46.39,121a.82.82,0,0,1-.93.8,15.94,15.94,0,0,1-3.52-1,.81.81,0,0,1-.48-1.08.84.84,0,0,1,1.09-.44l3.06.83Q46.41,120.41,46.39,121Z"/><path class="cls-17" d="M58.09,93.63a.83.83,0,0,1-.51.88.72.72,0,0,1-.82-.17,1,1,0,0,1-.22-.28c-.57-.91-1.14-1.83-1.7-2.75a1.3,1.3,0,0,1-.16-.31.79.79,0,0,1,.38-1,.83.83,0,0,1,1,.24,3.42,3.42,0,0,1,.26.4c.51.81,1,1.63,1.51,2.45A4.15,4.15,0,0,1,58.09,93.63Z"/><path class="cls-3" d="M38.47,94.55a.7.7,0,0,1-.53.64l-1.37.44-2,.61a2.19,2.19,0,0,1-.34.1c-.55.13-1-.06-1.07-.49a.8.8,0,0,1,.63-.94c1.14-.36,2.29-.72,3.43-1.06a1.81,1.81,0,0,1,.65-.07A.7.7,0,0,1,38.47,94.55Z"/><path class="cls-18" d="M46.05,128.78a.79.79,0,0,1,.84.7c.13.54.24,1.08.36,1.63s.25,1.13.35,1.7A.82.82,0,1,1,46,133c-.2-.95-.41-1.91-.61-2.86a2.83,2.83,0,0,1-.09-.65A.77.77,0,0,1,46.05,128.78Z"/><path class="cls-13" d="M65.15,116a.8.8,0,0,1-1,.83,7.54,7.54,0,0,1-.9-.34l-2.14-.92a2.64,2.64,0,0,1-.47-.25.79.79,0,0,1,.75-1.38c.6.23,1.18.49,1.77.74l1.37.58A.91.91,0,0,1,65.15,116Z"/><path class="cls-15" d="M77.59,103.3h.94a.81.81,0,1,1,0,1.61c-.4,0-.8,0-1.2,0-.7,0-1.39.08-2.09.09a.8.8,0,0,1-.91-.81.73.73,0,0,1,.78-.79Z"/><path class="cls-12" d="M10.15,47l-.55-.11c-.9-.2-1.8-.38-2.69-.6-.64-.15-.91-.51-.79-1s.54-.68,1.14-.55l2.93.64c.11,0,.23,0,.34.09a.77.77,0,0,1,.56.93C11,46.81,10.73,47,10.15,47Z"/><path class="cls-18" d="M39.87,122.58a.93.93,0,0,1-.44.75.86.86,0,0,1-1-.07,5.8,5.8,0,0,1-.58-.52c-.61-.61-1.22-1.21-1.8-1.84a1.51,1.51,0,0,1-.31-.68.67.67,0,0,1,.41-.73.71.71,0,0,1,.79,0,1.49,1.49,0,0,1,.27.23c.73.74,1.47,1.46,2.19,2.21A3.91,3.91,0,0,1,39.87,122.58Z"/><path class="cls-4" d="M55,17.61a1.48,1.48,0,0,1-.35.5c-.93.66-1.88,1.29-2.83,1.91a.73.73,0,0,1-1.07-.17.77.77,0,0,1,.19-1.11c.44-.35.91-.65,1.38-1s1-.69,1.5-1S55,16.8,55,17.61Z"/><path class="cls-9" d="M54.8,121.63a.69.69,0,0,1-.69-.94c.2-.73.43-1.45.65-2.18.15-.5.28-1,.46-1.49a1.12,1.12,0,0,1,.35-.52.66.66,0,0,1,1.06.5,1.54,1.54,0,0,1-.05.48c-.35,1.18-.7,2.37-1.07,3.55C55.37,121.49,55.18,121.63,54.8,121.63Z"/><path class="cls-21" d="M55,140.12c-.7,0-1.09-.54-.88-1a1.74,1.74,0,0,1,.38-.52c.7-.69,1.41-1.37,2.12-2,.49-.47.9-.51,1.25-.16s.34.81-.16,1.3c-.73.71-1.46,1.42-2.2,2.12A3.67,3.67,0,0,1,55,140.12Z"/><path class="cls-22" d="M35.21,118.07a.79.79,0,0,1-1.15.78,1.3,1.3,0,0,1-.42-.42c-.52-.89-1-1.79-1.54-2.7a1.27,1.27,0,0,1-.16-.51.74.74,0,0,1,.51-.79.69.69,0,0,1,.88.29c.19.29.32.6.49.89.39.68.79,1.34,1.18,2A3.24,3.24,0,0,1,35.21,118.07Z"/><path class="cls-13" d="M65.29,121.25a.75.75,0,0,1-.91.76,1.32,1.32,0,0,1-.39-.15l-2.7-1.43a.83.83,0,0,1-.52-.67.74.74,0,0,1,.82-.86,1,1,0,0,1,.35.08l3,1.58A.73.73,0,0,1,65.29,121.25Z"/><path class="cls-14" d="M88.62,88.31c0,.58-.23.89-.62,1a.73.73,0,0,1-.87-.55c-.3-1.07-.57-2.15-.82-3.24a.73.73,0,0,1,.54-.93.75.75,0,0,1,1,.58c.22.75.39,1.51.58,2.26C88.48,87.74,88.56,88.08,88.62,88.31Z"/><path class="cls-15" d="M80.13,62.24c-.77,0-1.16-.25-1.18-.76s.35-.81,1-.85l2.62-.2a1.74,1.74,0,0,1,.64.08A.78.78,0,0,1,83,62c-.27,0-.55.07-.83.09s-.72,0-1.08,0S80.39,62.22,80.13,62.24Z"/><path class="cls-9" d="M74.85,57.47a.82.82,0,1,1,1.63,0c.11.95.22,1.9.32,2.86a.86.86,0,0,1-.73,1,.84.84,0,0,1-.88-.78c0-.2-.06-.4-.09-.6C75,59.11,74.94,58.32,74.85,57.47Z"/><path class="cls-13" d="M66.92,95.6l2,.14a.8.8,0,0,1,.82.72.72.72,0,0,1-.74.88c-.9,0-1.8-.07-2.69-.15a.78.78,0,0,1-.77-.78.73.73,0,0,1,.7-.81C66.5,95.58,66.74,95.6,66.92,95.6Z"/><path class="cls-16" d="M21.73,88.83a.81.81,0,0,1-.64.8.71.71,0,0,1-.82-.54c-.23-.82-.43-1.66-.63-2.49a3.34,3.34,0,0,1-.12-.77.71.71,0,0,1,1.34-.29C21.18,86.63,21.45,87.74,21.73,88.83Z"/><path class="cls-17" d="M39,87.85c0-.21,0-.31,0-.41a.77.77,0,0,1,1.51-.14,9.51,9.51,0,0,1,.19,1.19c.07.53.15,1.07.18,1.6a.75.75,0,0,1-.7.88.78.78,0,0,1-.87-.73C39.18,89.41,39.09,88.58,39,87.85Z"/><path class="cls-15" d="M75.24,100.72c-.52,0-1-.09-1.56-.15a.81.81,0,0,1-.74-.6.77.77,0,0,1,.87-1l1.86.11c.54,0,.88.32.9.77s-.35.79-.91.82c-.14,0-.28,0-.42,0Z"/><path class="cls-4" d="M61.44,32.53a.81.81,0,0,1-1,.85,15.18,15.18,0,0,1-1.8-.8.81.81,0,0,1,.72-1.45c.56.22,1.1.47,1.64.73A.79.79,0,0,1,61.44,32.53Z"/><path class="cls-4" d="M56.74,33.13a3,3,0,0,1-.09.34c-.22.49-.43,1-.66,1.47a.82.82,0,1,1-1.49-.68c.22-.53.45-1.06.72-1.58a.77.77,0,0,1,1-.39A.86.86,0,0,1,56.74,33.13Z"/><path class="cls-4" d="M55.55,29.91a.8.8,0,0,1-1,.82,13.1,13.1,0,0,1-1.8-.79.81.81,0,0,1,.7-1.46c.57.23,1.13.49,1.69.76A.76.76,0,0,1,55.55,29.91Z"/><path class="cls-4" d="M57.87,29.57a.77.77,0,0,1-.78-1.05,12.27,12.27,0,0,1,.77-1.74.8.8,0,0,1,1.46.64c-.23.6-.49,1.18-.77,1.75A.69.69,0,0,1,57.87,29.57Z"/><path class="cls-22" d="M44.19,103.6c.34.07.81.14,1.27.27a.8.8,0,1,1-.37,1.56c-.45-.08-.91-.16-1.35-.27a.8.8,0,0,1-.61-.9C43.21,103.83,43.59,103.56,44.19,103.6Z"/><path class="cls-13" d="M69.66,118c0,.64-.46,1-1,.85a11.34,11.34,0,0,1-1.48-.63.8.8,0,0,1,.66-1.46c.46.18.92.38,1.37.59A.7.7,0,0,1,69.66,118Z"/><path class="cls-22" d="M36.53,111.08a.84.84,0,0,1,.85.93.82.82,0,1,1-1.63-.07A.75.75,0,0,1,36.53,111.08Z"/><path class="cls-7" d="M59.3,122.74A5.31,5.31,0,0,0,53.9,128a5.35,5.35,0,0,0,10.7.17A5.33,5.33,0,0,0,59.3,122.74Zm-1.14,8.75c-1,.09-2.22-1.19-2.55-2.56a3.78,3.78,0,0,1,2.23-4.31c1.48-.62,3.55,0,3.92.88a3.61,3.61,0,0,0-4,1.64A3.57,3.57,0,0,0,58.16,131.49Zm2.56-.57a1.95,1.95,0,0,1,0-3.89,1.95,1.95,0,1,1,0,3.89Z"/></svg>